<?xml version="1.0" encoding="UTF-8" standalone="no"?>
<!DOCTYPE svg PUBLIC "-//W3C//DTD SVG 1.1//EN" "http://www.w3.org/Graphics/SVG/1.1/DTD/svg11.dtd">
<!-- Created with Vectornator (http://vectornator.io/) -->
<svg height="100%" stroke-miterlimit="10" style="fill-rule:nonzero;clip-rule:evenodd;stroke-linecap:round;stroke-linejoin:round;" version="1.1" viewBox="0 0 6144 6144" width="100%" xml:space="preserve" xmlns="http://www.w3.org/2000/svg" xmlns:vectornator="http://vectornator.io" xmlns:xlink="http://www.w3.org/1999/xlink">
<defs/>
<path d="M0 0L6144 0L6144 6144L0 6144L0 0Z" fill="#ffffff" fill-rule="nonzero" opacity="1" stroke="none"/>
<g id="Layer-1" vectornator:layerName="Layer 1">
<g opacity="1" vectornator:layerName="Group 1">
<path d="M0 0C0 3070.5 0 3070.5 0 6141C3070.5 6141 3070.5 6141 6141 6141C6141 3070.5 6141 3070.5 6141 0C3070.5 0 3070.5 0 0 0Z" fill="#67e9fe" fill-rule="nonzero" opacity="1" stroke="none"/>
<path d="M2235 2007C2136.26 1908.26 2043.01 1857.23 1905 1836C1881.47 1832.38 1819.63 1816.37 1803 1833C1817.97 1847.97 1925.62 1859.46 1959 1869C2042.63 1892.9 2113.79 1942.79 2175 2004C2185.02 2014.02 2213.53 2044.42 2208 2061C2197.44 2092.69 2166.53 2125.94 2151 2157C2144.03 2170.94 2100.87 2282.45 2097 2283C2068.02 2287.14 2025.03 2266.43 1995 2265C1908.01 2260.86 1705.2 2272.8 1632 2346C1648.52 2362.52 1729.5 2321 1752 2316C1830.59 2298.54 2010.48 2274.36 2082 2328C2094.23 2337.17 2077.67 2391.79 2076 2406C2068.49 2469.85 2067.97 2531.88 2082 2595C2120.21 2766.96 2238.79 2914.61 2367 3030C2349.14 3056.78 2303.86 3072.09 2277 3090C2214.41 3131.73 2151.68 3176.13 2097 3228C2058.01 3264.99 2017.97 3301.2 1983 3342C1977.32 3348.63 1945.45 3398.32 1938 3399C1907.13 3401.81 1875.99 3398.38 1845 3399C1814.06 3399.62 1708.09 3394.91 1683 3420C1665.89 3411.45 1604.1 3426.9 1590 3441C1571.06 3431.53 1530.93 3457.43 1512 3465C1434.89 3495.85 1346.91 3561.88 1338 3651C1328.58 3745.24 1370.13 3759.68 1422 3831C1427.06 3837.96 1418.8 3856.99 1416 3864C1395.94 3914.16 1310.5 3967.8 1272 4014C1113.55 4204.14 1034.04 4462.12 1104 4707C1141.92 4839.7 1229.7 4946.7 1326 5043C1568.8 5285.8 2007.72 5307 2322 5307C2533.94 5307 2683.44 5237.28 2862 5148C2914.64 5200.64 2936.31 5291.83 3021 5313C3108.3 5334.83 3198.61 5341.56 3285 5307C3309.53 5297.19 3353.91 5254.78 3378 5253C3476.36 5245.71 3597.72 5243.46 3681 5181C3712.32 5157.51 3756.55 5117.18 3792 5103C3812.5 5094.8 3887.7 5119.67 3909 5121C3927.99 5122.19 3946.97 5124 3966 5124C4101.21 5124 4228.81 5030.63 4311 4932C4396.63 4829.24 4424.92 4719.15 4482 4605C4498.99 4571.02 4502.78 4524.67 4515 4488C4543.49 4402.52 4588.47 4327.53 4653 4263C4769.25 4146.75 4938.44 4204.85 5079 4158C5139.59 4137.8 5224.22 4093.1 5241 4026C5318.4 3716.41 5040.62 3617.05 4782 3654C4727.42 3661.8 4630.7 3673.3 4590 3714C4598.45 3730.89 4610.14 3742.56 4620 3759C4728.94 3704.53 4872.65 3690.73 4989 3714C5020.7 3720.34 5063.39 3720.29 5091 3741C5170.25 3800.44 5253.45 3925.4 5178 4026C5101.79 4127.61 4989.28 4111.74 4872 4116C4849.22 4116.83 4799.28 4119.72 4782 4137C4756.98 4124.49 4650.96 4194.55 4632 4212C4611.7 4230.68 4591.51 4249.49 4572 4269C4558.07 4282.93 4546.91 4300.64 4536 4317C4472.37 4412.45 4457.99 4521.03 4416 4626C4378.37 4720.08 4335.8 4810.25 4272 4890C4232.25 4939.69 4172.94 5011.52 4107 5028C4034.07 5046.23 3985.54 5067 3903 5067C3883.91 5067 3860.21 5066.21 3846 5052C3880 4984 3922.69 4939.85 3936 4860C3943.33 4815.99 3934.27 4760.18 3948 4719C3953.13 4703.62 3998.68 4687.08 4011 4677C4051.31 4644.02 4105.3 4590.78 4119 4536C4172.55 4321.8 4234 4098.69 4389 3933C4453.39 3864.16 4514.55 3826.56 4584 3771C4574.45 3761.45 4566.07 3735.02 4554 3732C4534.49 3727.12 4415.2 3829.73 4404 3840C4390.96 3851.95 4377.51 3863.49 4365 3876C4355.49 3885.51 4346.86 3895.87 4338 3906C4232.76 4026.27 4157.4 4178.41 4119 4332C4090.78 4444.86 4068.79 4594.1 3951 4653C3937.34 4639.34 3941.31 4596.5 3939 4578C3931.85 4520.82 3921.77 4467.48 3909 4410C3861.89 4198.02 3792.93 3991.88 3801 3774C3803.1 3717.38 3813.04 3623.95 3849 3576C3860.65 3560.46 3923.21 3559.7 3942 3555C3994.03 3541.99 4087.05 3520.95 4125 3483C4148.2 3498.47 4153.94 3567.93 4155 3594C4156.71 3635.98 4155.14 3678.09 4158 3720C4158.19 3722.82 4162 3724 4164 3726C4176.85 3713.15 4175.28 3692.54 4176 3675C4177.71 3633.02 4179 3591.01 4179 3549C4179 3524.73 4172.03 3490.07 4161 3468C4201.21 3427.79 4256.78 3402.31 4299 3363C4369.38 3297.47 4417.55 3229.07 4476 3156C4525.17 3192.88 4570.72 3233.58 4605 3285C4625.2 3315.3 4638.03 3369.03 4662 3393C4691.31 3373.46 4589.01 3225.49 4569 3204C4548.28 3181.74 4527.51 3159.51 4506 3138C4501.47 3133.47 4496 3130 4491 3126C4516.01 3075.97 4544.57 3024.87 4569 2976C4635.6 2842.8 4664.81 2679.76 4701 2535C4706.23 2514.09 4721.8 2493.41 4731 2475C4761.33 2414.33 4779.82 2347.63 4815 2289C4837.54 2251.44 4870.42 2193.32 4881 2151C4887.15 2126.38 4906.07 2100.85 4917 2079C4963.02 1986.96 5021.57 1842.86 5001 1740C4974.63 1608.13 4794.7 1583.62 4686 1581C4614.01 1579.27 4539.16 1598.06 4470 1578C4431.97 1566.97 4414.36 1521.63 4386 1494C4375.35 1483.63 4364.08 1473.91 4353 1464C4270.48 1390.16 4180.9 1322.94 4086 1266C3961.84 1191.5 3824.66 1132.92 3681 1101C3621.34 1087.74 3548.54 1092.85 3492 1074C3439 1056.33 3414.5 993.503 3375 954C3296 875.001 3160.95 776.351 3042 816C2900.8 863.067 2827.47 1053.06 2766 1176C2737.4 1233.19 2714.43 1300.76 2673 1356C2616.82 1430.91 2542.02 1487.3 2493 1569C2407.16 1712.07 2335.07 1873.58 2235 2007Z" fill="#0b0a76" fill-rule="nonzero" opacity="1" stroke="none"/>
<path d="M2238 2109C2187.27 2159.73 2178.32 2240.36 2148 2301C2160.99 2313.99 2228.82 2331.18 2199 2361C2223.73 2410.46 2237.97 2473.44 2259 2526C2320.21 2679.02 2454.84 2827.65 2580 2925C3118.17 3343.57 3936.07 3220.2 4350 2688C4447.98 2562.03 4534.11 2412.62 4578 2259C4589.44 2218.95 4626.92 2156.55 4620 2115C4607.41 2039.47 4590.39 1966.18 4566 1893C4556.67 1865.02 4533 1826.92 4533 1797C4533 1771.98 4696.26 1758 4719 1758C4792.06 1758 4815.44 1816.6 4809 1881C4798.62 1984.75 4733.15 2082.63 4695 2178C4690.09 2190.28 4681.12 2215.41 4671 2223C4663.72 2228.46 4645.57 2220.26 4644 2232C4634.7 2301.78 4659 2379.29 4659 2448C4659 2460.06 4659.35 2469.35 4668 2478C4701.32 2444.68 4709.61 2383.65 4734 2343C4805.43 2223.95 4861.89 2080.28 4914 1950C4927.67 1915.83 4969.42 1793.84 4956 1767C4923.16 1701.32 4737.76 1681.24 4683 1680C4609.01 1678.32 4532.19 1697.24 4461 1677C4422.91 1666.17 4405.36 1620.63 4377 1593C4315.24 1532.83 4246.18 1478.13 4176 1428C3930.19 1252.42 3655.75 1170 3351 1170C3038.92 1170 2669.47 1396.89 2514 1656C2436.53 1785.12 2363.48 1916.87 2286 2046C2282.72 2051.47 2272.36 2065.92 2271 2070C2263.74 2091.77 2316.7 2127.98 2286 2151C2252.78 2175.91 2250.29 2121.29 2238 2109Z" fill="#a7a7c3" fill-rule="nonzero" opacity="1" stroke="none"/>
<path d="M4617 2133C4599.84 2150.16 4594.98 2196.07 4587 2220C4566.48 2281.55 4542.03 2339.93 4518 2400C4452.69 2563.28 4326.44 2717.56 4203 2841C3759.11 3284.89 2959.85 3272.86 2505 2853C2406.34 2761.93 2330.59 2657.18 2271 2538C2250.15 2496.29 2229.24 2388.24 2202 2361C2173 2375.5 2156.58 2340.21 2139 2349C2125.32 2355.84 2124.96 2414.51 2124 2427C2122.62 2444.97 2121.9 2462.99 2121 2481C2114.55 2609.97 2180.12 2742.4 2259 2841C2438.23 3065.04 2697.55 3219.27 2943 3342C3019.28 3380.14 3104.06 3409.03 3180 3447C3207.02 3460.51 3249.14 3464.05 3279 3474C3458.06 3533.69 3682.11 3555.38 3864 3519C3940 3503.8 4042.59 3486.31 4107 3438C4124.08 3425.19 4091.4 3392.2 4083 3381C4063.23 3354.64 4042.09 3330.23 4017 3309C4001.07 3295.52 3921.35 3263.79 3966 3237C3987.36 3224.18 4024.62 3264.4 4038 3276C4089.5 3320.63 4101.73 3378.73 4140 3417C4264.52 3354.74 4358.23 3239.65 4434 3126C4381.59 3073.59 4256.61 3051.81 4188 3048C4153.69 3046.09 4095.87 3065.92 4086 3033C4069.17 2976.89 4162.31 3001.59 4191 3006C4286.87 3020.75 4361.97 3059.99 4446 3102C4469.68 3078.32 4480.89 3038.22 4494 3012C4566.62 2866.76 4604.57 2707.73 4644 2550C4653.18 2513.29 4669.19 2489.12 4668 2451C4667.06 2421 4667.8 2390.89 4665 2361C4664.74 2358.18 4660.05 2357.63 4659 2355C4641.37 2310.93 4653.93 2169.93 4617 2133Z" fill="#8b8ab5" fill-rule="nonzero" opacity="1" stroke="none"/>
<path d="M4248 4992C4158.31 5081.69 4037.09 5118 3912 5118C3879.82 5118 3822.01 5091 3792 5097C3780.27 5099.35 3757.98 5125.15 3747 5133C3715.37 5155.59 3670.03 5189.74 3633 5199C3585.03 5210.99 3538.59 5231.08 3489 5241C3454.62 5247.88 3410.15 5243.43 3378 5247C3368.3 5248.08 3340.59 5273.65 3330 5280C3301.81 5296.92 3264.32 5308.6 3231 5316C3108.45 5343.23 3008.8 5321.8 2922 5235C2895.61 5208.61 2885.16 5172.24 2865 5142C2685.98 5231.51 2535.43 5293.27 2325 5298C2248.01 5299.73 2171.01 5301 2094 5301C1996.94 5301 1888.07 5265 1800 5265C1715.75 5265 1572.55 5193.28 1500 5157C1463.37 5138.68 1419.16 5086.83 1380 5079C1344.85 5071.97 1268.99 5130.01 1248 5151C1219.58 5179.42 1247.07 5212.07 1269 5232C1316.47 5275.16 1403.7 5291.92 1464 5307C1764.3 5382.07 2080.02 5404.79 2388 5421C2924.39 5449.23 3463.97 5447.95 3999 5397C4213.76 5376.55 4438.14 5354.62 4644 5286C4684.71 5272.43 4822.67 5220.79 4788 5163C4731.1 5068.16 4467.5 5032.08 4371 5016C4335.05 5010.01 4278.22 5012.14 4248 4992Z" fill="#5ca4d7" fill-rule="nonzero" opacity="1" stroke="none"/>
<path d="M3294 3633C3339.55 3678.55 3410.5 3701.5 3462 3753C3544.39 3835.39 3490.52 3937.48 3423 4005C3365.51 4062.49 3287.75 4098.75 3219 4140C3191.05 4156.77 3147.91 4166.09 3126 4188C3146.85 4229.69 3139.04 4295.8 3129 4341C3125.68 4355.95 3109.07 4387.07 3120 4398C3274.94 4320.53 3413.28 4251.24 3546 4128C3549 4131 3549 4131 3552 4134C3532.65 4172.7 3478.13 4218.62 3453 4245C3471.44 4281.87 3470.36 4321.07 3483 4359C3506.02 4359 3529 4354.95 3552 4356C3558.77 4356.31 3558.74 4368.18 3561 4371C3574.69 4388.12 3602.24 4400.24 3618 4416C3689.42 4487.42 3732.21 4658.73 3669 4743C3643.31 4777.26 3621.74 4813.88 3588 4842C3580.59 4848.18 3540.14 4868.59 3537 4878C3530.64 4897.09 3537 4969.69 3537 4998C3537 5076.97 3469.75 5132.49 3438 5196C3458.06 5216.06 3545.56 5184.78 3570 5175C3704.15 5121.34 3841.36 5028.54 3879 4878C3957.73 4563.07 3789.97 4259.7 3756 3954C3746.05 3864.41 3744.24 3769.79 3762 3681C3766.7 3657.51 3796.45 3601.28 3792 3579C3787.88 3558.38 3749.98 3574.69 3729 3576C3697.15 3577.99 3664.88 3580.88 3633 3579C3560.38 3574.73 3487.92 3567.9 3417 3555C3393.65 3550.76 3356.27 3533.68 3333 3537C3330.2 3537.4 3328.05 3540.37 3327 3543C3315.39 3572.01 3308.6 3603.8 3294 3633Z" fill="#8b8ab5" fill-rule="nonzero" opacity="1" stroke="none"/>
<path d="M1404 4125C1353.11 4165.72 1325.44 4240.4 1302 4299C1293.33 4320.68 1290.98 4358.02 1275 4374C1285.43 4394.87 1260.15 4527.33 1263 4563C1277.41 4743.09 1398.7 4915.62 1551 5007C1651.48 5067.29 1768.95 5095.32 1887 5115C1908.27 5118.55 2044.57 5157.13 2025 5118C2039.71 5103.29 1997.6 5071.39 1992 5049C1981.68 5007.7 1989.7 4963.18 1983 4923C1982.79 4921.73 1889.97 4848.96 1884 4842C1857.14 4868.86 1891.9 4920.27 1821 4938C1535.85 5009.29 1376.37 4539.07 1458 4335C1479.7 4280.75 1551.92 4205.77 1620 4233C1642.32 4241.93 1656.6 4266.09 1674 4281C1683.61 4289.24 1711.92 4275.64 1728 4281C1799.2 4304.73 1770.85 4377.86 1728 4410C1731.44 4420.32 1743.09 4471.68 1755 4473C1814.96 4479.66 1855.82 4521.13 1788 4572C1798.61 4593.21 1800.58 4620.58 1818 4638C1828.27 4627.73 1826.74 4604.66 1830 4590C1842.35 4534.41 1862.27 4474.04 1914 4443C1962.65 4413.81 2031.46 4416.08 2085 4425C2098.91 4427.32 2141.87 4447.04 2154 4443C2165.58 4439.14 2182.84 4417.62 2193 4410C2231.74 4380.95 2285.48 4338.13 2334 4326C2360.97 4319.26 2414.23 4314.77 2433 4296C2395.35 4220.7 2363.9 4237.45 2301 4206C2233.98 4172.49 2186.33 4124.05 2109 4113C2086.36 4109.77 2056.59 4129.89 2034 4134C2009.21 4138.51 1986.5 4134 1962 4134C1946.95 4134 1924.66 4162.84 1908 4167C1867.62 4177.09 1840.15 4188 1794 4188C1730.91 4188 1701.23 4107 1635 4107C1600.9 4107 1574.77 4144.94 1548 4161C1492.28 4194.43 1444.44 4160.38 1404 4125Z" fill="#64c4f1" fill-rule="nonzero" opacity="1" stroke="none"/>
<path d="M1746 1008C1444.04 1030.4 1349.72 1370.72 1560 1581C1623.62 1644.62 1744.26 1666.79 1827 1653C1861.01 1647.33 1889.6 1624.6 1920 1617C1964.48 1605.88 2021.39 1644 2067 1644C2114.25 1644 2052 1509.68 2052 1488C2052 1465.86 2076.71 1433.81 2082 1410C2091.18 1368.71 2091 1337.32 2091 1290C2091 1111.75 1896.47 996.837 1746 1008Z" fill="#0b0a76" fill-rule="nonzero" opacity="1" stroke="none"/>
<path d="M2835 2427C2660.52 2424.18 2614.2 2618.71 2658 2772C2699.72 2918.02 2833.34 3011.71 2982 3021C3124.78 3029.92 3333 2980.4 3333 2802C3333 2758.32 3321.46 2703.61 3294 2667C3171.54 2503.72 3032.08 2430.18 2835 2427Z" fill="#fcfbfd" fill-rule="nonzero" opacity="1" stroke="none"/>
<path d="M4629 3777C4568.1 3782.55 4517.87 3839.85 4473 3882C4346.09 4001.22 4239.03 4148.89 4191 4317C4166.35 4403.29 4149.36 4491.6 4116 4575C4097.1 4622.25 4056.8 4675.57 4017 4704C4004.23 4713.12 3945.06 4730.75 3942 4743C3921.74 4824.03 3933.75 4920.75 4035 4914C4084.97 4910.67 4150.68 4809.19 4176 4767C4274.35 4603.09 4333.28 4418.79 4404 4242C4446.81 4134.97 4544.63 4078.69 4638 4032C4654.47 4023.76 4759.99 4001.04 4761 3996C4774.47 3928.67 4684.3 3771.96 4629 3777Z" fill="#a7a7c3" fill-rule="nonzero" opacity="1" stroke="none"/>
<path d="M2436 4302C2445.46 4320.91 2454.76 4329.76 2469 4344C2418.43 4445.14 2490.44 4401.8 2520 4455C2529.16 4471.49 2490.56 4505.57 2493 4530C2495.07 4550.69 2519.95 4556.86 2526 4575C2539.47 4615.4 2487.3 4666.05 2466 4698C2452.88 4687.5 2445.17 4678.76 2436 4665C2424.83 4672.45 2415.14 4679.86 2406 4689C2411.33 4699.65 2467.64 4769.51 2463 4776C2443.56 4803.22 2435.34 4830.99 2418 4857C2402.23 4880.65 2342.11 4891.54 2316 4899C2298.16 4904.1 2257.25 4924.25 2244 4911C2266.47 4888.53 2378.88 4850.88 2322 4794C2303.01 4812.99 2304.57 4840.21 2283 4851C2273.67 4841.67 2275.33 4828.33 2265 4818C2224.96 4838.02 2229 4900 2178 4917C2149.15 4926.62 2099.69 4849.41 2103 4845C2143.7 4790.73 2151.52 4816.86 2190 4788C2182.76 4773.51 2179.06 4769.7 2166 4761C2185.32 4703.05 2208.79 4658.47 2214 4596C2214.42 4590.99 2212 4526 2223 4515C2243.08 4535.08 2271.42 4553.28 2295 4569C2304.26 4559.74 2307.63 4549.58 2319 4542C2310.36 4531.63 2212.41 4449.8 2196 4458C2182.37 4464.82 2176.44 4471.56 2163 4485C2213.34 4585.68 2151.55 4742.45 2076 4818C2056.65 4837.35 2027.36 4839.64 2010 4857C2060.28 4907.28 2048.21 4858.92 2070 4872C2084.64 4880.78 2095.95 4903.6 2106 4917C2103 4920 2103 4920 2100 4923C2072.46 4909.23 2034.32 4908.16 2004 4893C1993.11 4903.89 1981.16 4906.84 1971 4917C1985.62 4931.62 1974 4972.95 1974 4989C1974 5026.84 1993.53 5087.07 2028 5109C2046.06 5120.49 2063.87 5085.13 2079 5070C2087.24 5061.76 2093.54 5049.69 2100 5040C2164.18 5099.59 2203.22 5121.28 2289 5127C2297.66 5127.58 2308.79 5130.01 2316 5124C2361.75 5085.88 2284.41 4991.65 2259 4962C2268.54 4947.69 2303.75 4946.21 2322 4941C2340.82 4935.62 2387.77 4907.35 2406 4911C2416.38 4913.08 2416.46 4968.52 2418 4977C2422.83 5003.59 2457.27 5093.93 2493 5085C2509.36 5080.91 2523.34 5052.99 2532 5040C2576.78 5062.39 2617.87 5066.07 2664 5043C2677.93 5036.04 2705.85 5023.91 2697 5004C2688.85 4985.67 2597.65 4956.35 2631 4923C2729.49 4972.25 2884.15 4872.93 2865 4758C2861.05 4734.31 2778.26 4754.23 2766 4752C2673.92 4735.26 2590.08 4703.46 2499 4749C2494.5 4744.5 2494.5 4744.5 2490 4740C2517.27 4685.47 2568 4642.15 2568 4578C2568 4554.48 2527.66 4535.37 2532 4518C2538.97 4490.13 2562 4485.98 2562 4452C2562 4410.2 2507.91 4413.85 2493 4389C2490.24 4384.4 2512.19 4339.74 2511 4329C2508.13 4303.2 2450.63 4287.37 2436 4302Z" fill="#545085" fill-rule="nonzero" opacity="1" stroke="none"/>
<path d="M3936 4854C3919.92 4870.08 3918.22 4914.95 3909 4938C3890.98 4983.04 3863.04 5019.28 3834 5058C3845.09 5069.09 3885.71 5069.16 3900 5070C3923.98 5071.41 3947.98 5073 3972 5073C4066.07 5073 4150.71 5015.37 4218 4956C4333.29 4854.27 4392.69 4707.94 4440 4566C4462.49 4498.53 4474.02 4414.64 4518 4356C4554.26 4307.65 4584.63 4262.37 4629 4218C4661.31 4185.69 4713.2 4178.8 4743 4149C4733.24 4129.49 4789.76 3997.54 4758 3993C4707.03 3985.72 4632.44 4028.78 4590 4050C4529.67 4080.17 4471.82 4124.85 4431 4182C4399.94 4225.49 4384.69 4278.93 4368 4329C4326.8 4452.6 4270.33 4575.34 4212 4692C4164.63 4786.73 4037.94 5006.91 3936 4854Z" fill="#8b8ab5" fill-rule="nonzero" opacity="1" stroke="none"/>
<path d="M1755 1059C1630.14 1060.87 1530.61 1153.76 1503 1278C1494.84 1314.73 1481.32 1375.27 1506 1407C1579.92 1502.03 1679.71 1569 1803 1569C1833.01 1569 1987.67 1540 2001 1500C2003.55 1492.35 1997.2 1484.02 1998 1476C1999.15 1464.54 2018.7 1447.19 2022 1434C2039.59 1363.64 2055.6 1264.8 2007 1200C1932.97 1101.3 1874.07 1057.21 1755 1059Z" fill="#fcfbfd" fill-rule="nonzero" opacity="1" stroke="none"/>
<path d="M1971 5178C1956.06 5163.06 1910.39 5166.4 1890 5163C1836.23 5154.04 1783.74 5143.18 1731 5130C1568.13 5089.28 1401.57 4984.95 1314 4839C1200.96 4650.6 1187.84 4416.33 1287 4218C1300.72 4190.56 1375.75 4064.75 1395 4062C1434.65 4056.34 1443.86 4124.53 1482 4128C1539.47 4133.22 1562.33 4073.21 1617 4068C1654.13 4064.46 1666.24 4062.5 1695 4074C1764.02 4101.61 1816.64 4201.36 1905 4113C1886.35 4085.02 1850.99 4068.99 1830 4041C1813.15 4018.53 1802.17 3966.13 1782 3951C1773.74 3944.8 1751.79 3946.76 1743 3945C1690.59 3934.52 1637.91 3922.97 1587 3906C1574.44 3901.81 1473.19 3857.91 1473 3858C1464.13 3862.44 1459.89 3890.53 1452 3900C1416.76 3942.29 1383.28 3968.72 1341 4011C1236.48 4115.52 1165.7 4263.49 1137 4407C1081.07 4686.67 1238.24 4931.5 1464 5082C1518.65 5118.43 1666.36 5199 1731 5199C1755 5199 1779.15 5196.35 1803 5199C1845.57 5203.73 1939.01 5209.99 1971 5178Z" fill="#67e9fe" fill-rule="nonzero" opacity="1" stroke="none"/>
<path d="M2988 3954C2954.49 3987.51 2904.23 3994.39 2865 4014C2796.64 4048.18 2722.31 4062.84 2661 4113C2650.07 4121.94 2579.78 4175.56 2592 4200C2608.04 4232.08 2676.36 4206.36 2694 4224C2673.31 4244.69 2612.81 4250.91 2589 4239C2568 4260 2590.97 4308.96 2607 4329C2648.18 4380.47 2684.74 4408.63 2754 4374C2757 4377 2757 4377 2760 4380C2743.66 4396.34 2720.68 4401.32 2706 4416C2775.24 4485.24 2952.68 4458.77 3036 4431C3052.6 4425.47 3113.02 4412.46 3120 4395C3187.41 4226.49 3104.02 4070.02 2988 3954Z" fill="#dbd9e5" fill-rule="nonzero" opacity="1" stroke="none"/>
<path d="M1755 4467C1748.32 4453.64 1747.28 4413.51 1731 4407C1714 4400.2 1690.47 4411.87 1671 4407C1592.04 4387.26 1636.84 4305.96 1674 4275C1658.36 4259.36 1643.47 4232.87 1620 4227C1527.81 4203.95 1457.55 4298.03 1440 4377C1394.26 4582.81 1522.63 4953 1779 4953C1834.58 4953 1899.11 4902.44 1884 4842C1873.88 4801.52 1839.07 4768.86 1830 4719C1821.95 4674.73 1826.16 4613.87 1797 4575C1785.66 4559.87 1751.84 4577.84 1725 4551C1696.35 4522.35 1734.01 4482.74 1755 4467Z" fill="#9bdaf6" fill-rule="nonzero" opacity="1" stroke="none"/>
<path d="M3075 5163C2988.13 5076.13 2957.48 4938 3126 4938C3166.9 4938 3226.76 4991.93 3243 5019C3252.38 5034.63 3254.66 5057.66 3267 5070C3295.91 5043.98 3321.56 5017.88 3339 4983C3316.29 4960.29 3315 4957.17 3315 4923C3315 4878.46 3376.65 4888.04 3384 4866C3396.75 4827.75 3397.94 4720.52 3369 4680C3316.58 4606.62 3165.39 4598.24 3096 4626C2941.36 4687.86 2870.13 4910.06 2889 5061C2891.48 5080.84 2909.72 5160.91 2934 5169C2955.12 5176.04 3003.51 5175 3027 5175C3046.01 5175 3062.06 5175.94 3075 5163Z" fill="#fcfbfd" fill-rule="nonzero" opacity="1" stroke="none"/>
<path d="M1950 3543C1966.49 3559.49 2006.68 3548.53 2031 3552C2101.09 3562.01 2142.29 3597.15 2202 3627C2219.27 3609.73 2225.5 3581.84 2238 3561C2282.98 3486.03 2327.73 3423 2421 3423C2439.89 3423 2459.72 3437.72 2472 3450C2503.85 3434.08 2503.01 3397.97 2517 3363C2538.87 3308.33 2581.23 3260.06 2619 3216C2609.77 3202.15 2444.65 3087 2439 3087C2422.05 3087 2325.43 3158.71 2307 3171C2159.57 3269.29 2046.89 3397.67 1950 3543Z" fill="#a7a7c3" fill-rule="nonzero" opacity="1" stroke="none"/>
<path d="M3297 3630C3258.78 3668.22 3237.03 3731.42 3201 3774C3138.63 3847.71 3067.45 3904.03 2988 3957C3025.84 3994.84 3087.76 4056.02 3102 4113C3105.69 4127.78 3117.19 4183.06 3132 4188C3151.87 4194.62 3213.43 4145.79 3231 4137C3348.23 4078.38 3510 3987.26 3510 3843C3510 3733.39 3373.21 3680.81 3297 3630Z" fill="#a7a7c3" fill-rule="nonzero" opacity="1" stroke="none"/>
<path d="M4902 3696C4815.65 3691.94 4695.05 3703.17 4617 3750C4354.7 3907.38 4219.03 4115.88 4155 4404C4135.25 4492.88 4100.9 4587.1 4035 4653C4032.89 4655.11 3900.08 4733.42 3948 4743C3996.38 4752.68 4109.77 4623.94 4122 4575C4188.54 4308.83 4271.54 4086.46 4470 3888C4487.56 3870.44 4599.97 3783 4629 3783C4655.39 3783 4704.7 3850.16 4722 3879C4743.99 3915.66 4744.02 3955.75 4755 3996C4755.74 3998.73 4758.21 4001.53 4761 4002C4774.15 4004.19 4805.38 3994.15 4818 3993C4895.66 3985.94 4996.7 3980.47 5064 3930C5084.58 3914.56 5105.85 3897.15 5124 3879C5140.26 3862.74 5145.13 3840.53 5148 3819C5162.34 3711.47 4969.64 3699.18 4902 3696Z" fill="#fcfbfd" fill-rule="nonzero" opacity="1" stroke="none"/>
<path d="M2532 4215C2492.53 4234.73 2404.21 4222.79 2388 4239C2402.62 4258.49 2416.01 4285.01 2433 4302C2440.79 4309.79 2470.89 4302.76 2484 4308C2525.34 4324.54 2496.1 4367.8 2484 4392C2502.82 4410.82 2544.62 4409.47 2553 4443C2560.61 4473.42 2524 4521.42 2526 4524C2552.31 4557.83 2562 4559.38 2562 4605C2562 4642.61 2458.88 4727.16 2496 4755C2503.57 4760.68 2568.83 4731.7 2580 4731C2664.13 4725.74 2707.34 4748.98 2784 4758C2798.79 4759.74 2836.96 4748.27 2850 4752C2874.66 4759.04 2826.58 4859.71 2868 4839C2881.11 4832.45 2884.2 4795.01 2892 4782C2921.13 4733.45 2958.96 4685.61 2994 4635C3002.05 4623.37 2998.72 4607.08 3000 4593C3002.22 4568.56 3018.18 4515.18 2997 4494C2977.65 4503.67 2940.3 4504.63 2919 4506C2785.78 4514.59 2637.61 4471.02 2565 4350C2545.81 4318.01 2540.02 4223.02 2532 4215Z" fill="#5ca4d7" fill-rule="nonzero" opacity="1" stroke="none"/>
<path d="M2274 2073C2308.89 2038.11 2329.61 1983.32 2355 1941C2431.29 1813.85 2496.55 1674.54 2592 1560C2840.08 1262.31 3232.33 1127.22 3615 1191C3705.56 1206.09 3822.9 1229.94 3903 1278C4036.99 1358.39 4171.99 1426.66 4296 1530C4322.64 1552.2 4348.86 1575.12 4374 1599C4403.23 1626.76 4422.13 1672.33 4461 1683C4531.4 1702.32 4607 1682.16 4680 1683C4783.56 1684.19 4866.52 1706.64 4947 1767C4950 1764 4950 1764 4953 1761C4946.88 1748.77 4950.03 1734.04 4941 1722C4886.45 1649.27 4780.68 1633.88 4695 1632C4614.01 1630.22 4530.54 1648.82 4452 1629C4416.35 1620 4400.34 1576.66 4374 1551C4339.6 1517.48 4303.19 1485.43 4266 1455C4166.33 1373.45 4055.6 1300.3 3945 1245C3901.5 1223.25 3845.77 1196.94 3798 1185C3775.84 1179.46 3736.48 1174.48 3720 1158C3713.46 1161.27 3511.09 1125.63 3492 1125C3446.01 1123.49 3400.01 1122 3354 1122C3124.63 1122 2873.27 1240.12 2709 1395C2551.72 1543.29 2464.06 1723.23 2355 1905C2338.25 1932.91 2256.12 2055.12 2274 2073Z" fill="#dbd9e5" fill-rule="nonzero" opacity="1" stroke="none"/>
<path d="M3240 4563C3244.5 4569 3244.5 4569 3249 4575C3277.43 4565.52 3330.77 4596.58 3354 4614C3388.31 4639.73 3418.22 4660.22 3450 4692C3504.16 4746.16 3510.85 4813.7 3543 4878C3681.1 4808.95 3758.81 4601.74 3660 4470C3633.76 4435.01 3600.63 4365.95 3552 4359C3499.11 4351.44 3360.03 4445.38 3324 4479C3299.7 4501.68 3275.51 4524.49 3252 4548C3247.47 4552.53 3244 4558 3240 4563Z" fill="#a7a7c3" fill-rule="nonzero" opacity="1" stroke="none"/>
<path d="M1866 4008C1873.77 4000.23 1872.61 3992.39 1881 3984C1932.61 4035.61 2006.4 3960.6 2046 3921C2123.28 3843.72 2157.18 3719.65 2205 3624C2152.09 3571.09 1955.95 3508.54 1902 3549C1877.71 3567.21 1862.26 3637.85 1851 3666C1805.07 3780.82 1789.38 3905.84 1866 4008Z" fill="#fcfbfd" fill-rule="nonzero" opacity="1" stroke="none"/>
<path d="M2607 3222C2571.85 3257.15 2481.75 3380.24 2490 3438C2490.4 3440.8 2493.2 3443.57 2496 3444C2547.31 3451.89 2599.98 3445.6 2652 3456C2751.16 3475.83 2858.37 3513.93 2934 3582C2988.65 3631.19 3044.2 3695.81 3021 3777C3006.27 3828.55 2908.48 3886.48 2949 3927C3042.83 3880.09 3137.95 3788.07 3198 3708C3207.17 3695.78 3256.36 3632.73 3249 3618C3243.16 3606.31 3204.65 3603.62 3192 3600C3144.46 3586.42 3099.67 3567.27 3054 3549C2884.57 3481.23 2737.61 3343.6 2607 3222Z" fill="#fcfbfd" fill-rule="nonzero" opacity="1" stroke="none"/>
<path d="M2886 3909C2674.61 3979.46 2442.68 3947.04 2226 3978C2221.8 3978.6 2219.18 3983.36 2217 3987C2198.95 4017.08 2183.37 4041.7 2157 4071C2175.09 4089.09 2210.01 4090.51 2232 4107C2311.54 4166.65 2410.25 4217.5 2514 4176C2582.4 4148.64 2626.64 4076.62 2691 4038C2733.38 4012.57 2880.04 3984.68 2901 3948C2905.99 3939.27 2899.42 3927.95 2886 3909Z" fill="#5ca4d7" fill-rule="nonzero" opacity="1" stroke="none"/>
<path d="M3366 4677C3354.47 4688.53 3375.23 4732.38 3378 4749C3384.5 4788.02 3372.82 4829.76 3378 4866C3379.5 4876.48 3434.21 4872.48 3429 4935C3423.88 4996.49 3348.13 4961.83 3330 4986C3309.14 5013.81 3283.54 5041.78 3264 5070C3250.74 5089.15 3273.45 5129.87 3252 5154C3216.37 5194.08 3157.13 5200.65 3108 5181C3098.73 5177.29 3080.27 5160 3072 5160C3048.46 5160 3021.34 5169 2997 5169C2982.65 5169 2942.19 5154.81 2931 5166C3058.14 5356.71 3275.82 5292.18 3414 5154C3545.18 5022.82 3514.3 4782.93 3366 4677Z" fill="#c3c3df" fill-rule="nonzero" opacity="1" stroke="none"/>
<path d="M1263 4266C1206.19 4322.81 1211.13 4570.65 1221 4620C1310.84 5069.19 1739.78 5170.7 2130 5193C2227.29 5198.56 2323.44 5201.48 2421 5190C2444.15 5187.28 2490.77 5189.22 2508 5172C2496.41 5160.41 2484.82 5169 2472 5169C2427.99 5169 2383.92 5168.86 2340 5166C2319.32 5164.65 2294.78 5151 2268 5151C2214.93 5151 2162.96 5156.4 2109 5151C2071.54 5147.25 2036.8 5136.84 2004 5127C1980.89 5120.07 1950.62 5122.48 1926 5118C1850.3 5104.24 1774.79 5091.08 1701 5070C1493.11 5010.6 1328.01 4831.55 1281 4620C1265.5 4550.23 1250.18 4444.65 1284 4377C1249.69 4342.69 1281.03 4284.03 1263 4266Z" fill="#0b0a76" fill-rule="nonzero" opacity="1" stroke="none"/>
<path d="M1902 4626C1899 4629 1899 4629 1896 4632C1893 4630.5 1893 4630.5 1890 4629C1887 4632 1887 4632 1884 4635C1911.84 4690.69 1933.15 4739.77 1992 4779C2016.99 4795.66 2063.07 4799.07 2082 4818C2111.29 4788.71 2140.82 4750.71 2151 4710C2165.68 4651.29 2212.91 4539.14 2172 4488C2159.55 4472.44 2133.53 4469.29 2115 4464C2071.91 4451.69 2027.99 4449 1983 4449C1886.41 4449 1852.2 4559.59 1902 4626Z" fill="#d4a95a" fill-rule="nonzero" opacity="1" stroke="none"/>
<path d="M4689 1752C4642.74 1749.36 4562 1753.67 4530 1791C4516.95 1806.23 4539.92 1838.76 4545 1854C4562.89 1907.67 4571.48 1972.95 4596 2022C4616.51 2063.02 4600.15 2240.11 4665 2232C4680.46 2230.07 4734.27 2100.83 4743 2079C4792.47 1955.32 4903.9 1764.27 4689 1752Z" fill="#0b0a76" fill-rule="nonzero" opacity="1" stroke="none"/>
<path d="M2937 2454C2841.53 2483.15 3026.52 2637 2850 2637C2797.53 2637 2768.37 2584.58 2787 2538C2791.8 2525.99 2816.05 2502.62 2811 2490C2805.19 2475.47 2779.58 2499.46 2769 2511C2697.35 2589.17 2769.49 2625.09 2808 2679C2861.2 2753.48 2766.85 2904 2928 2904C2989.1 2904 3020.96 2826.04 3057 2790C3064.51 2782.49 3108.43 2774.74 3123 2766C3140.98 2755.21 3182.66 2731.99 3177 2715C3167.08 2685.24 3134.44 2725.64 3117 2730C3068.9 2742.03 3037.33 2749.33 3000 2712C2980.82 2692.82 2959.51 2610.74 2985 2598C3015.91 2582.55 3050.74 2603.72 3078 2571C3124.34 2515.39 2974.47 2442.56 2937 2454Z" fill="#0b0a76" fill-rule="nonzero" opacity="1" stroke="none"/>
<path d="M5151 3786C5139.18 3797.82 5145.61 3817.76 5142 3834C5136.26 3859.81 5114.6 3882.4 5097 3900C5057.13 3939.87 4968.85 3973.01 4914 3978C4871.63 3981.85 4804.35 3972.83 4764 3993C4763.17 3993.42 4747.31 4119.39 4734 4146C4741.86 4153.86 4851.44 4125.64 4869 4125C4991.71 4120.54 5167.36 4130.89 5202 3975C5210.25 3937.88 5210.85 3902.56 5199 3867C5188.7 3836.1 5171.32 3811.4 5151 3786Z" fill="#c3c3df" fill-rule="nonzero" opacity="1" stroke="none"/>
<path d="M2943 3654C2912.93 3684.07 2891.61 3726.39 2859 3759C2792.16 3825.84 2652.3 3828 2571 3828C2530.7 3828 2486.56 3805.19 2451 3804C2423 3803.07 2395 3805.94 2367 3807C2352.29 3807.55 2298.75 3792.75 2283 3819C2278.03 3827.28 2240.13 3922.66 2241 3927C2241.55 3929.77 2244.18 3932.81 2247 3933C2273.94 3934.86 2301 3933.51 2328 3933C2384.84 3931.93 2442.28 3928.36 2499 3924C2601.53 3916.11 2835.92 3912.01 2919 3840C2934.92 3826.2 2970.65 3797.77 2976 3771C2978.52 3758.38 2974.89 3748.11 2985 3738C2969.25 3706.49 2966.17 3682.96 2943 3654Z" fill="#5ca4d7" fill-rule="nonzero" opacity="1" stroke="none"/>
<path d="M2835 5013C2647.11 5200.89 2326.81 5205.13 2082 5187C2044.44 5184.22 2005.62 5175 1968 5175C1921.77 5175 1870.73 5199 1824 5199C1799.1 5199 1746.36 5177.64 1728 5196C1754.03 5222.03 1930.25 5240.34 1965 5244C2182.22 5266.87 2404.89 5268.32 2616 5208C2658.9 5195.74 2830.39 5133.23 2850 5094C2855.49 5083.01 2846.14 5065.7 2844 5055C2840.84 5039.2 2847.85 5025.84 2835 5013Z" fill="#4a8ecf" fill-rule="nonzero" opacity="1" stroke="none"/>
<path d="M2202 3624C2183.45 3642.55 2175.59 3675.03 2166 3699C2136.39 3773.03 2093.15 3858.6 2040 3918C2020.48 3939.82 1989.66 3978.58 1956 3987C1941.42 3990.64 1888.71 3990 1887 4002C1878.09 4064.35 1975.73 4108.58 2031 4092C2053.9 4085.13 2033.98 4035.02 2049 4020C2062.75 4033.75 2053.32 4062.19 2073 4074C2083.73 4080.44 2135 4027 2160 4002C2180.49 3981.51 2185.23 3941.94 2196 3915C2224.1 3844.75 2252.13 3778.73 2286 3711C2257.23 3682.23 2238.02 3645.61 2202 3624Z" fill="#c3c3df" fill-rule="nonzero" opacity="1" stroke="none"/>
<path d="M2745 3642C2748 3639 2748 3639 2751 3636C2744.48 3622.95 2736.37 3615.94 2745 3603C2820.63 3640.82 2789.17 3740.46 2715 3759C2650.41 3775.15 2587.9 3791.83 2520 3798C2503.89 3799.46 2465.33 3795.67 2451 3810C2470.47 3829.47 2541.99 3829.67 2568 3831C2711.92 3838.38 2806.53 3817.47 2907 3717C2924.47 3699.53 2929.95 3673.05 2946 3657C2904 3572.99 2722.49 3516.54 2637 3501C2593.58 3493.11 2514.43 3458.14 2520 3525C2521.53 3543.38 2541.38 3555.76 2556 3567C2565.45 3574.27 2602.5 3575.14 2616 3579C2664.81 3592.95 2703.54 3614.36 2745 3642Z" fill="#67e9fe" fill-rule="nonzero" opacity="1" stroke="none"/>
<path d="M2778 1281C2813.64 1263.18 2902.05 1218.25 2922 1185C2950.32 1137.79 3007.73 963.685 3063 960C3128.11 955.659 3165.23 997.158 3204 1047C3213.64 1059.4 3224.11 1083.4 3237 1092C3249.14 1100.09 3297.87 1084.18 3312 1083C3328.77 1081.6 3365.41 1086.59 3381 1071C3298.7 988.699 3152.25 843.301 3018 897C2933.43 930.827 2855.94 1104.13 2814 1188C2803.71 1208.57 2765.51 1262.27 2778 1281Z" fill="#a7a7c3" fill-rule="nonzero" opacity="1" stroke="none"/>
<path d="M2619 3210C2613 3216 2613 3216 2607 3222C2754.56 3374.83 2912.44 3497.78 3108 3576C3133.15 3586.06 3238.26 3625.4 3255 3612C3262.33 3606.14 3269.85 3573.44 3273 3564C3277.81 3549.58 3287.03 3537.09 3282 3522C3215.04 3522 3133.28 3474.51 3072 3450C2910.21 3385.28 2776.02 3288.51 2619 3210Z" fill="#dbd9e5" fill-rule="nonzero" opacity="1" stroke="none"/>
<path d="M1428 3765C1451.27 3753.36 1479.98 3768 1506 3768C1544.25 3768 1608.05 3737.95 1635 3711C1607.37 3669.55 1575 3671.93 1575 3615C1575 3585.63 1640.45 3524.45 1665 3549C1695.68 3533.66 1721.66 3543.34 1749 3516C1757.6 3507.4 1766.94 3462.32 1752 3459C1720.83 3452.07 1677.72 3467.17 1647 3474C1518.22 3502.62 1290.72 3608.11 1428 3765Z" fill="#67e9fe" fill-rule="nonzero" opacity="1" stroke="none"/>
<path d="M3078 4932C2904.13 4966.83 3039.47 5199 3174 5199C3251.18 5199 3300.84 5106.39 3261 5040C3213.18 4960.3 3162.82 4915.01 3078 4932Z" fill="#0b0a76" fill-rule="nonzero" opacity="1" stroke="none"/>
<path d="M2850 4818C2813.48 4854.52 2803.65 4905.34 2745 4920C2703.09 4930.48 2661.34 4910.94 2625 4917C2622.21 4917.46 2619.89 4920.32 2619 4923C2603.18 4970.45 2702.24 4989.02 2691 5019C2678.69 5051.82 2598.36 5055 2577 5055C2563.3 5055 2546.41 5033.74 2535 5037C2496.87 5047.89 2505.06 5103.06 2463 5061C2430.18 5028.18 2443.15 4969.15 2415 4941C2379.27 4976.72 2345.67 5010.78 2307 5043C2316.09 5061.18 2323.99 5092.13 2322 5112C2321.66 5115.44 2255.22 5136.96 2292 5148C2327.97 5158.79 2383.73 5143.66 2421 5139C2550.56 5122.8 2674.71 5089.96 2775 5004C2803.42 4979.64 2880.09 4881.43 2871 4836C2869.81 4830.03 2854.02 4824.03 2850 4818Z" fill="#4a8ecf" fill-rule="nonzero" opacity="1" stroke="none"/>
<path d="M2451 4896C2455.5 4893 2455.5 4893 2460 4890C2472.24 4902.24 2471.87 4914.69 2478 4929C2500.34 4981.13 2551.93 5028 2610 5028C2624.55 5028 2633.43 5022.57 2643 5013C2628.67 4998.67 2614.45 4988.42 2604 4971C2593.19 4952.99 2574.38 4888.87 2598 4881C2612.44 4876.19 2637.78 4890.16 2652 4893C2714.46 4905.49 2764.06 4898.12 2802 4845C2809.85 4834.02 2825.34 4808.01 2823 4794C2820.88 4781.26 2761.47 4786.87 2742 4782C2665.1 4762.77 2565.15 4732.2 2499 4791C2482.81 4805.39 2425.6 4870.6 2451 4896Z" fill="#bb9d72" fill-rule="nonzero" opacity="1" stroke="none"/>
<path d="M1401 4131C1437.02 4162.52 1498.99 4203.76 1548 4167C1580.42 4142.69 1606.56 4113 1650 4113C1696.88 4113 1720.86 4174.21 1764 4185C1846.99 4205.75 1899.74 4180.51 1965 4137C1919.42 4091.42 1855.76 4137 1800 4137C1750.37 4137 1723.12 4066.96 1671 4062C1570.98 4052.47 1564.75 4122 1482 4122C1453.33 4122 1419.38 4032.96 1389 4059C1358.27 4085.34 1260 4222 1260 4269C1260 4287.76 1246.22 4396.07 1278 4377C1293.74 4367.55 1297.66 4320.35 1305 4302C1329.66 4240.36 1364.03 4186.46 1401 4131Z" fill="#2d3d98" fill-rule="nonzero" opacity="1" stroke="none"/>
<path d="M3735 2490C3669.84 2495.92 3613.89 2511.74 3561 2547C3546.48 2556.68 3451.99 2622 3501 2622C3523.84 2622 3557.16 2599.28 3579 2592C3651.43 2567.85 3761.57 2545.18 3828 2595C3875.52 2630.64 3893.68 2674.91 3897 2733C3898.78 2764.21 3886.9 2803.9 3909 2826C3937.16 2803.47 3944.74 2767.42 3951 2733C3977.01 2589.96 3876.29 2504.02 3735 2490Z" fill="#0b0a76" fill-rule="nonzero" opacity="1" stroke="none"/>
<path d="M1635 3705C1593.89 3746.11 1480.13 3780.57 1431 3756C1428 3759 1428 3759 1425 3762C1493.71 3830.71 1581.52 3858.88 1674 3882C1702.2 3889.05 1741.41 3906.53 1770 3897C1770 3870.85 1764 3845 1764 3819C1764 3805.02 1775.65 3775.26 1773 3762C1772.29 3758.47 1653.24 3723.24 1635 3705Z" fill="#5ca4d7" fill-rule="nonzero" opacity="1" stroke="none"/>
<path d="M2199 3624C2228.7 3653.7 2257.82 3680.42 2283 3714C2308.78 3688.22 2326.47 3641.56 2346 3609C2381.48 3549.86 2429.89 3498.55 2475 3447C2358.24 3330.24 2243.95 3534.09 2199 3624Z" fill="#8b8ab5" fill-rule="nonzero" opacity="1" stroke="none"/>
<path d="M2292 4566C2331.4 4605.4 2393.04 4644.48 2322 4680C2294.92 4652.92 2320.32 4612.32 2289 4581C2271.54 4598.46 2292.42 4620.46 2283 4644C2270.02 4676.44 2227.39 4659.23 2214 4686C2211.9 4690.19 2235 4748.49 2235 4758C2235 4787.52 2193.07 4775.97 2181 4782C2182.5 4785 2182.5 4785 2184 4788C2176.5 4795.5 2176.5 4795.5 2169 4803C2189.15 4823.15 2220.95 4819.42 2238 4845C2250.51 4832.49 2250.06 4824.02 2268 4830C2268 4897.74 2336.03 4813.05 2313 4767C2321.82 4758.18 2362.46 4764.75 2373 4764C2413.47 4761.11 2401.01 4717.45 2406 4695C2408.91 4681.89 2436 4686.2 2436 4668C2436 4654.19 2395.21 4615.73 2388 4608C2367.25 4585.77 2346.96 4563.04 2325 4542C2311.25 4528.83 2296.85 4556.31 2292 4566Z" fill="#706689" fill-rule="nonzero" opacity="1" stroke="none"/>
<path d="M2841 4914C2809.93 4945.07 2792.78 4986.72 2757 5016C2630.91 5119.16 2445.33 5126.67 2292 5142C2249.21 5146.28 2205.99 5142.74 2163 5142C2141.28 5141.63 2022.17 5120.83 2007 5136C2028.23 5157.23 2122.13 5155.4 2151 5157C2171.99 5158.17 2193.02 5158.69 2214 5160C2241.45 5161.72 2271.33 5154.04 2298 5157C2312.12 5158.57 2329.03 5171.51 2340 5172C2395.63 5174.47 2460.27 5175 2517 5175C2573.95 5175 2638.93 5141.83 2691 5121C2730.05 5105.38 2826.16 5042.68 2841 5013C2848 4999 2839.83 4985 2841 4971C2842.21 4956.45 2852.55 4925.55 2841 4914Z" fill="#222283" fill-rule="nonzero" opacity="1" stroke="none"/>
<path d="M2604 1986C2553.54 1987.94 2513.06 2018.17 2475 2052C2470.56 2055.94 2413.89 2087.45 2445 2103C2458.34 2109.67 2503.29 2086.57 2517 2082C2565.72 2065.76 2640.64 2045.73 2685 2079C2734.59 2116.19 2760.02 2166.05 2787 2220C2792.22 2230.44 2812.44 2297.28 2829 2289C2849.42 2278.79 2834.37 2193.19 2829 2169C2801.15 2043.68 2727.74 1981.25 2604 1986Z" fill="#0b0a76" fill-rule="nonzero" opacity="1" stroke="none"/>
<path d="M2262 4410C2281.95 4469.86 2415.99 4598.21 2490 4539C2505.48 4526.62 2496.48 4531.65 2499 4509C2501.34 4487.91 2526 4479.86 2526 4455C2526 4416.37 2423.06 4444.87 2466 4359C2425.66 4318.66 2304.55 4381.64 2262 4410Z" fill="#d4a95a" fill-rule="nonzero" opacity="1" stroke="none"/>
<path d="M2190 4452C2214.24 4484.32 2268.98 4503.8 2301 4530C2364.89 4582.27 2414.18 4641.91 2463 4707C2479.9 4695.73 2487.92 4675.62 2499 4659C2534.47 4605.79 2546.41 4577.41 2496 4527C2439.67 4583.33 2352.77 4515.77 2313 4476C2308.28 4471.28 2264.45 4422.83 2271 4413C2294.24 4378.14 2442.85 4341.85 2463 4362C2504.91 4320.09 2409.68 4331.81 2388 4338C2313.79 4359.2 2251.13 4406.15 2190 4452Z" fill="#bb9d72" fill-rule="nonzero" opacity="1" stroke="none"/>
<path d="M1698 1230C1583.25 1287.38 1699.99 1375.99 1755 1431C1758.29 1434.29 1770.01 1436.68 1773 1434C1808.83 1401.94 1841.48 1366.48 1875 1332C1878.12 1328.79 1879.92 1324.34 1881 1320C1902.01 1235.94 1822.69 1216.87 1767 1254C1756.4 1245.52 1742.62 1233 1698 1230Z" fill="#fd0369" fill-rule="nonzero" opacity="1" stroke="none"/>
<path d="M4680 1803C4664.26 1804.97 4593.38 1804.86 4587 1824C4582.64 1837.06 4606.95 1881.83 4611 1896C4621.64 1933.26 4650.59 2100.59 4668 2118C4705.75 2080.25 4744.36 1947.55 4758 1893C4761.46 1879.16 4774.76 1842.38 4764 1827C4748.64 1805.06 4745.17 1811.04 4680 1803Z" fill="#ea619a" fill-rule="nonzero" opacity="1" stroke="none"/>
<path d="M3456 4242C3380.54 4284.32 3317.56 4356.22 3240 4395C3227.73 4401.13 3164.44 4423.03 3162 4434C3158.76 4448.57 3163.59 4564.23 3168 4566C3183.88 4572.35 3196.75 4539.67 3204 4530C3221.24 4507.01 3245.66 4482.34 3264 4464C3325.81 4402.19 3400.61 4390.64 3477 4362C3502.12 4352.58 3477.23 4230.09 3456 4242Z" fill="#c3c3df" fill-rule="nonzero" opacity="1" stroke="none"/>
<path d="M2388 3630C2353.7 3664.3 2344.91 3724.09 2313 3756C2326.42 3776.12 2360.82 3765.55 2385 3765C2439.32 3763.77 2631.61 3758.39 2670 3720C2601.16 3651.16 2468.99 3670.5 2388 3630Z" fill="#5ca4d7" fill-rule="nonzero" opacity="1" stroke="none"/>
<path d="M2412 3066C2265.32 3139.34 2116.21 3260.15 2013 3384C1980.25 3423.29 1949.36 3466.06 1923 3510C1919.35 3516.09 1895.81 3548.2 1911 3552C1961.98 3564.75 2033.06 3429.09 2064 3393C2176.42 3261.84 2302.99 3182.67 2442 3090C2429.16 3072.88 2436.9 3081.12 2412 3066Z" fill="#dbd9e5" fill-rule="nonzero" opacity="1" stroke="none"/>
<path d="M2160 4068C2142.69 4085.31 2122.48 4098.39 2103 4113C2124.17 4134.17 2179.55 4130.66 2208 4152C2288.04 4212.03 2442.56 4290.33 2535 4221C2546.81 4212.14 2553.58 4168.83 2562 4152C2559 4149 2559 4149 2556 4146C2427.9 4231.4 2338.18 4164.71 2232 4101C2210.91 4088.34 2176.19 4084.19 2160 4068Z" fill="#222283" fill-rule="nonzero" opacity="1" stroke="none"/>
<path d="M2499 3489C2469.57 3518.43 2442.94 3548.75 2418 3582C2432.51 3601.35 2474.31 3599.83 2499 3606C2548.59 3618.4 2598.4 3634.96 2646 3654C2673.44 3664.97 2699.39 3692.1 2727 3699C2744.16 3703.29 2762.21 3672.44 2760 3657C2750.26 3588.81 2594.29 3589.71 2556 3561C2514.38 3529.79 2548.46 3517.46 2499 3489Z" fill="#5ca4d7" fill-rule="nonzero" opacity="1" stroke="none"/>
<path d="M1623 3636C1670.77 3612.11 1716.67 3595.67 1770 3585C1789.19 3581.16 1819.44 3582.46 1836 3573C1862.01 3558.14 1891.73 3482.53 1905 3456C1887.97 3438.97 1857.07 3449.37 1833 3450C1816.97 3450.42 1800.98 3451.67 1785 3453C1731.1 3457.49 1767.51 3497.08 1734 3525C1716.25 3539.79 1683.01 3526.79 1665 3543C1645.6 3560.46 1593.89 3606.89 1623 3636Z" fill="#5ca4d7" fill-rule="nonzero" opacity="1" stroke="none"/>
<path d="M1863 4599C1840.96 4621.04 1851 4686.89 1851 4701C1851 4749.78 1887.13 4798.16 1917 4833C1918.94 4835.26 1937.48 4862.22 1950 4863C2013.08 4866.94 2038.49 4849.88 2085 4815C2060.71 4790.71 2004.82 4784.71 1974 4758C1918.35 4709.77 1901.7 4657.06 1863 4599Z" fill="#bb9d72" fill-rule="nonzero" opacity="1" stroke="none"/>
<path d="M1515 1407C1500.04 1421.96 1522.63 1453.18 1533 1467C1571.48 1518.3 1609.25 1566.42 1671 1587C1723.13 1604.38 1782.39 1612.4 1836 1599C1906.71 1581.32 1934.3 1543.15 2016 1584C2030.97 1569.03 2008.01 1513.01 1995 1500C1970.59 1524.41 1933.8 1534.4 1902 1545C1752.37 1594.88 1607.9 1530.87 1515 1407Z" fill="#a7a7c3" fill-rule="nonzero" opacity="1" stroke="none"/>
<path d="M2199 4461C2197.5 4458 2197.5 4458 2196 4455C2239.57 4411.43 2300.06 4375.31 2358 4356C2382.79 4347.74 2443.97 4345.03 2457 4332C2452.61 4323.22 2442.01 4293 2430 4293C2317.52 4293 2244.76 4391.62 2154 4437C2152.83 4437.58 2047.02 4416.54 2040 4416C2024.02 4414.77 2008.03 4413 1992 4413C1985.09 4413 1937.93 4416.33 1935 4431C1932.74 4442.3 1955.68 4462.16 1965 4461C2012.37 4455.08 2056.78 4452.44 2103 4464C2111.36 4466.09 2156.45 4487.91 2163 4485C2171.19 4481.36 2191.48 4468.52 2199 4461Z" fill="#706689" fill-rule="nonzero" opacity="1" stroke="none"/>
<path d="M2400 4677C2365.74 4711.26 2457.19 4749.63 2340 4758C2331.37 4758.62 2323.79 4758.89 2316 4755C2299.42 4771.58 2325 4818.73 2325 4842C2325 4875.47 2281.53 4873.68 2262 4881C2251.42 4884.97 2235.49 4912.21 2229 4920C2243.21 4934.21 2402.71 4885.86 2421 4863C2430.39 4851.27 2435.24 4822.53 2442 4809C2447.4 4798.2 2475.2 4782.4 2469 4770C2453.07 4738.13 2422.77 4704.33 2400 4677Z" fill="#d4a95a" fill-rule="nonzero" opacity="1" stroke="none"/>
<path d="M1968 4191C1852.93 4204.74 1880.36 4341 1992 4341C2036.49 4341 2065.88 4283.09 2055 4245C2043.42 4204.46 2003.04 4186.82 1968 4191Z" fill="#dbd9e5" fill-rule="nonzero" opacity="1" stroke="none"/>
<path d="M1671 4272C1651.09 4281 1627.72 4299.38 1623 4323C1611.8 4378.99 1669.88 4443.56 1731 4413C1783.03 4386.99 1802.6 4289.92 1728 4275C1709.89 4271.38 1688.05 4264.29 1671 4272Z" fill="#dbd9e5" fill-rule="nonzero" opacity="1" stroke="none"/>
<path d="M2997 903C3011.78 917.776 3061.23 891 3081 891C3120.19 891 3174.54 908.658 3207 933C3253.15 967.613 3298.97 1001.71 3342 1041C3355.07 1052.93 3365.18 1069.09 3381 1077C3404.89 1088.94 3409.29 1081.71 3420 1071C3347.45 998.449 3195.63 828.593 3066 861C3038.65 867.838 3019.56 887.961 2997 903Z" fill="#dbd9e5" fill-rule="nonzero" opacity="1" stroke="none"/>
<path d="M2985 1158C2988 1161 2988 1161 2991 1164C3035.4 1141.8 3155.95 1125.05 3183 1098C3161.35 1069.13 3139.97 1042.97 3114 1017C3056.2 959.199 3004.11 1119.79 2985 1158Z" fill="#ea619a" fill-rule="nonzero" opacity="1" stroke="none"/>
<path d="M2217 4539C2200.13 4555.87 2211.7 4589.98 2208 4614C2199.86 4666.93 2184.28 4715.44 2160 4764C2190.32 4794.32 2245.9 4790.87 2241 4737C2240.17 4727.91 2217.12 4693.8 2220 4689C2228.28 4675.21 2271.03 4664.97 2286 4650C2329.77 4606.23 2248.43 4554.72 2217 4539Z" fill="#d4a95a" fill-rule="nonzero" opacity="1" stroke="none"/>
<path d="M2100 5028C2079.25 5016.69 2001.05 5125.22 2028 5136C2061.24 5149.29 2125.27 5143.82 2160 5145C2201.99 5146.42 2244 5148.95 2286 5148C2292.16 5147.86 2297.32 5131.63 2295 5127C2288.19 5113.38 2241.05 5120.16 2223 5115C2177.96 5102.13 2142.8 5051.33 2100 5028Z" fill="#5ca4d7" fill-rule="nonzero" opacity="1" stroke="none"/>
<path d="M2121 4956C2086.89 4954.94 2113.01 4997.36 2127 5013C2156.32 5045.77 2224.97 5109.72 2280 5094C2306.76 5086.35 2271.06 5029.87 2262 5019C2210.58 4957.29 2192.23 4958.22 2121 4956Z" fill="#d4a95a" fill-rule="nonzero" opacity="1" stroke="none"/>
<path d="M2910 2733C2892.69 2735.62 2876.59 2745.52 2865 2760C2832.06 2801.17 2886.28 2865.23 2925 2862C2949.06 2860 2986.66 2815.34 2994 2808C3041.47 2760.53 2945.73 2727.6 2910 2733Z" fill="#e4333b" fill-rule="nonzero" opacity="1" stroke="none"/>
<path d="M1857 4740C1885.52 4711.48 1831.35 4645.65 1866 4611C1877.14 4622.14 1909.67 4660.33 1929 4641C1848.58 4560.58 1872.41 4515.73 1959 4458C1951.25 4450.25 1946.38 4432.19 1938 4428C1920.89 4419.44 1853.3 4490.78 1848 4512C1829.79 4584.84 1794.46 4677.46 1857 4740Z" fill="#545085" fill-rule="nonzero" opacity="1" stroke="none"/>
<path d="M3567 4104C3473.94 4197.06 3373.53 4254.98 3267 4326C3286.42 4345.42 3288.13 4347.2 3300 4365C3380.91 4311.06 3448.86 4255.14 3519 4185C3533 4171 3580.66 4124.48 3567 4104Z" fill="#222283" fill-rule="nonzero" opacity="1" stroke="none"/>
<path d="M1824 4659C1801.57 4681.43 1826.91 4739.73 1836 4767C1849.06 4806.19 1938.16 4926.57 1971 4920C1986.95 4916.81 1995.97 4901.02 2010 4893C2020.67 4886.9 2032.74 4891.26 2043 4881C1995.32 4833.32 1962.7 4879.67 1923 4836C1890.89 4800.68 1877.24 4758.73 1851 4722C1838.51 4704.51 1840.92 4675.92 1824 4659Z" fill="#706689" fill-rule="nonzero" opacity="1" stroke="none"/>
<path d="M3099 4710C3025.34 4711.78 3008.4 4842 3102 4842C3167.49 4842 3180.26 4708.04 3099 4710Z" fill="#0b0a76" fill-rule="nonzero" opacity="1" stroke="none"/>
<path d="M3381 4863C3325.99 4852.16 3273.22 4942.06 3336 4986C3387 5021.7 3507.67 4887.97 3381 4863Z" fill="#0b0a76" fill-rule="nonzero" opacity="1" stroke="none"/>
<path d="M3258 4734C3183.2 4753.72 3180.66 4860 3267 4860C3331.37 4860 3331.81 4771.81 3300 4740C3290 4730 3271.67 4730.39 3258 4734Z" fill="#0b0a76" fill-rule="nonzero" opacity="1" stroke="none"/>
<path d="M2142 4794C2120.31 4796.02 2109.06 4826.9 2097 4845C2094.1 4849.35 2151.84 4933.47 2178 4923C2188.99 4918.6 2219.49 4887.51 2223 4884C2277.68 4829.32 2183.77 4790.11 2142 4794Z" fill="#bb9d72" fill-rule="nonzero" opacity="1" stroke="none"/>
<path d="M2247 4956C2275.28 4984.28 2288.84 5011.26 2310 5043C2326.49 5030.63 2342.79 5017.95 2358 5004C2375.21 4988.22 2392.49 4972.51 2409 4956C2419.23 4945.77 2436.27 4906.54 2409 4902C2403.06 4901.01 2247.61 4955.39 2247 4956Z" fill="#5ca4d7" fill-rule="nonzero" opacity="1" stroke="none"/>
<path d="M1752 4464C1718.44 4473.27 1706.31 4498.88 1713 4539C1717.82 4567.9 1766.08 4589.95 1791 4575C1857.95 4534.83 1814.18 4446.83 1752 4464Z" fill="#dbd9e5" fill-rule="nonzero" opacity="1" stroke="none"/>
<path d="M3114 4452C3094.41 4456.04 3075.61 4465.56 3057 4473C3054.39 4474.04 3045.09 4478.49 3045 4482C3044.05 4518 3045.17 4554.1 3048 4590C3048.37 4594.69 3056.15 4597.92 3060 4596C3096.81 4577.6 3115.66 4585.7 3117 4536C3117.7 4509.99 3120.93 4484 3120 4458C3119.9 4455.17 3116.77 4451.43 3114 4452Z" fill="#5ca4d7" fill-rule="nonzero" opacity="1" stroke="none"/>
<path d="M1665 3666C1679.01 3684.69 1756.57 3719.09 1782 3714C1794.34 3711.53 1815.53 3631.58 1812 3621C1774.96 3621 1692.13 3638.87 1665 3666Z" fill="#5ca4d7" fill-rule="nonzero" opacity="1" stroke="none"/>
<path d="M2283 4593C2286 4590 2286 4590 2289 4587C2310.7 4608.7 2304 4637.02 2304 4665C2304 4713.16 2378.78 4661.56 2364 4632C2363.56 4631.12 2236.1 4501.58 2214 4506C2163.39 4516.12 2281.96 4592.17 2283 4593Z" fill="#d6c29b" fill-rule="nonzero" opacity="1" stroke="none"/>
<path d="M3042 4479C2978.71 4500.1 3002.95 4524.53 2997 4590C2995.82 4602.95 2984.46 4628.46 2994 4638C3000.45 4631.55 3056.45 4600.17 3057 4593C3059.76 4557.09 3056.83 4520.9 3054 4485C3053.78 4482.18 3050 4481 3042 4479Z" fill="#545085" fill-rule="nonzero" opacity="1" stroke="none"/>
<path d="M2460 4884C2422.12 4921.88 2456.17 5001.46 2487 5040C2501.97 5025.03 2511.52 5003.65 2529 4992C2495.83 4958.83 2490.19 4914.19 2460 4884Z" fill="#8b7067" fill-rule="nonzero" opacity="1" stroke="none"/>
<path d="M2016 4935C1992.63 4958.37 2010.24 5040.24 2034 5064C2059.52 5042.13 2091.46 4996.37 2079 4959C2074.75 4946.26 2027.55 4940.77 2016 4935Z" fill="#d4a95a" fill-rule="nonzero" opacity="1" stroke="none"/>
<path d="M1962 4227C1902.5 4232.43 1931.24 4308 1980 4308C2044.73 4308 2033.79 4220.45 1962 4227Z" fill="#64c4f1" fill-rule="nonzero" opacity="1" stroke="none"/>
<path d="M1686 4305C1636.49 4323.24 1639.2 4383 1710 4383C1763.64 4383 1746.02 4282.89 1686 4305Z" fill="#9bdaf6" fill-rule="nonzero" opacity="1" stroke="none"/>
<path d="M2727 4215C2710.65 4190.48 2634.47 4233.47 2598 4197C2605.14 4182.72 2605.46 4154.68 2586 4179C2582.29 4183.64 2578.72 4234.53 2580 4239C2589.21 4271.23 2706.5 4235.5 2727 4215Z" fill="#222283" fill-rule="nonzero" opacity="1" stroke="none"/>
<path d="M2001 4893C2018.33 4910.33 2097.28 4940.72 2115 4923C2090.94 4874.87 2045.56 4848.44 2001 4893Z" fill="#bb9d72" fill-rule="nonzero" opacity="1" stroke="none"/>
<path d="M4551 3735C4580.66 3764.66 4583.99 3789.01 4620 3753C4586.76 3719.76 4596.21 3701.1 4551 3735Z" fill="#222283" fill-rule="nonzero" opacity="1" stroke="none"/>
<path d="M2367 4683C2360.44 4677.75 2323.28 4704.25 2322 4710C2309.5 4766.26 2426.19 4730.38 2367 4683Z" fill="#d4a95a" fill-rule="nonzero" opacity="1" stroke="none"/>
</g>
</g>
</svg>
