<?xml version="1.0" encoding="UTF-8" standalone="no"?>
<!DOCTYPE svg PUBLIC "-//W3C//DTD SVG 1.1//EN" "http://www.w3.org/Graphics/SVG/1.1/DTD/svg11.dtd">
<!-- Created with Vectornator (http://vectornator.io/) -->
<svg height="100%" stroke-miterlimit="10" style="fill-rule:nonzero;clip-rule:evenodd;stroke-linecap:round;stroke-linejoin:round;" version="1.1" viewBox="0 0 4000 4000" width="100%" xml:space="preserve" xmlns="http://www.w3.org/2000/svg" xmlns:xlink="http://www.w3.org/1999/xlink">
<defs/>
<path d="M0 0L4000 0L4000 4000L0 4000L0 0Z" fill="#ffffff" fill-rule="nonzero" opacity="1" stroke="none"/>
<g id="Layer-1">
<g opacity="1">
<path d="M0 0C0 1999.02 0 1999.02 0 3998.05C1999.02 3998.05 1999.02 3998.05 3998.05 3998.05C3998.05 1999.02 3998.05 1999.02 3998.05 0C1999.02 0 1999.02 0 0 0Z" fill="#fda7f2" fill-rule="nonzero" opacity="1" stroke="none"/>
<path d="M1246.09 1902.34C1246.09 1914.8 1235.87 1926.71 1234.37 1939.45C1228.63 1988.26 1263.02 2000 1306.64 2000C1315.54 2000 1317.03 1996.56 1324.22 2001.95C1381.5 2044.91 1419.47 2108.71 1482.42 2146.48C1503.87 2159.35 1532.08 2179.41 1556.64 2185.55C1574.5 2190.01 1614.31 2200.25 1626.95 2212.89C1581.36 2304.08 1542.11 2402.54 1503.91 2498.05C1459.65 2608.68 1396.34 2710.32 1351.56 2822.27C1333.15 2868.3 1320.88 2919.53 1316.41 2968.75C1315.79 2975.52 1311.3 3046.13 1310.55 3046.87C1111.82 2947.51 972.189 2816.16 992.187 2576.17C996.758 2521.32 1029.34 2398.91 1093.75 2382.81C1191.19 2358.45 1158.7 2459.24 1183.59 2521.48C1207.62 2581.54 1258.94 2595.7 1318.36 2595.7C1338.26 2595.7 1356.95 2580.15 1371.09 2568.36C1423.14 2524.99 1431.64 2461.39 1431.64 2396.48C1431.64 2354.39 1411.55 2310.27 1390.62 2275.39C1316.49 2151.83 1177.41 2094.12 1035.16 2134.77C876.372 2180.13 804.604 2306.97 767.578 2455.08C750.51 2523.35 758.284 2603.68 773.437 2671.87C789.35 2743.48 803.926 2839.48 849.609 2900.39C896.092 2962.37 931.462 3023.26 988.281 3080.08C1105.86 3197.66 1267.75 3248.08 1425.78 3283.2C1438.89 3286.12 1460.7 3320.07 1466.8 3326.17C1486.41 3345.78 1541.3 3348.49 1566.41 3353.52C1587.09 3357.65 1609.85 3360.99 1630.86 3361.33C1705.07 3362.52 1779.29 3363.28 1853.52 3363.28C1902.57 3363.28 1950.2 3367.19 2000 3367.19C2025.24 3367.19 2049.42 3356.79 2072.27 3347.66C2077.85 3345.42 2086.18 3334.23 2091.8 3333.98C2134.73 3332.14 2177.74 3333.36 2220.7 3333.98C2242.03 3334.29 2250.4 3335.94 2283.2 3335.94C2356.09 3335.94 2419.13 3319.44 2429.69 3240.23C2431.54 3226.34 2433.25 3203.97 2423.83 3191.41C2406.88 3168.81 2390.39 3169.69 2375 3154.3C2449.8 3079.5 2491 2965.47 2478.52 2859.37C2473.53 2816.97 2457.99 2780.25 2433.59 2746.09C2426.32 2735.91 2421.49 2726.95 2431.64 2716.8C2624.61 2813.28 2828.68 2714.31 2875 2505.86C2883.67 2466.86 2882.81 2425.77 2875 2386.72C2872.04 2371.91 2863.28 2354.91 2863.28 2339.84C2863.28 2296.82 2901.61 2271.25 2884.77 2220.7C2866.41 2165.65 2806.35 2178.08 2777.34 2212.89C2751.32 2186.87 2681.73 2177.36 2669.92 2224.61C2661.28 2259.18 2667.89 2294.76 2683.59 2326.17C2622.54 2387.23 2544.83 2330.92 2507.81 2275.39C2503.41 2268.79 2474.95 2218.07 2476.56 2214.84C2476.9 2214.16 2566.05 2179.87 2578.12 2173.83C2660.63 2132.58 2717.98 2069.13 2783.2 2003.91C2784.61 2002.5 2792.96 1998.13 2794.92 1998.05C2809.23 1997.45 2823.58 1998.6 2837.89 1998.05C2890.17 1996.04 2881.34 1934.55 2865.23 1902.34C2867.19 1900.39 2867.19 1900.39 2869.14 1898.44C2878.24 1902.99 2904.7 1902.34 2908.2 1902.34C2966.2 1902.34 2915.75 1792.04 2908.2 1765.62C2885.09 1684.72 2880.63 1598.81 2857.42 1517.58C2846.28 1478.59 2835.4 1438.11 2820.31 1400.39C2811.51 1378.38 2796.73 1354.89 2791.02 1332.03C2785.8 1311.19 2812.52 1236.2 2816.41 1210.94C2831.22 1114.66 2839.47 1012.42 2828.12 916.016C2821.8 862.271 2805.25 778.819 2740.23 769.531C2646.48 756.137 2536.67 822.303 2462.89 875C2443.33 888.974 2422.09 914.53 2400.39 923.828C2393.71 926.691 2286.74 893.398 2271.48 890.625C2167.81 871.774 2061.58 863.543 1957.03 873.047C1893.31 878.84 1829.07 888.68 1767.58 906.25C1758.32 908.896 1719.1 927.908 1710.94 923.828C1689.85 913.283 1668.53 887.402 1648.44 873.047C1589.94 831.263 1521.01 794.804 1451.17 777.344C1417.85 769.014 1371.84 755.266 1341.8 779.297C1270.07 836.676 1279.3 973.483 1279.3 1050.78C1279.3 1121.33 1290.14 1192.45 1302.73 1261.72C1306.58 1282.86 1322.27 1309.3 1322.27 1330.08C1322.27 1341.26 1309.2 1351.07 1306.64 1361.33C1297.11 1399.44 1278.48 1436.47 1267.58 1474.61C1241.17 1567.05 1231.95 1660.1 1208.98 1751.95C1201.87 1780.41 1161.23 1864.57 1179.69 1886.72C1199.47 1910.46 1221.2 1894.04 1246.09 1902.34Z" fill="#0e0b78" fill-rule="nonzero" opacity="1" stroke="none"/>
<path d="M1214.84 1865.23C1229.34 1865.23 1296.94 1834.66 1298.83 1855.47C1299.88 1867.01 1293.43 1880.28 1296.87 1890.62C1354.85 1890.62 1381.98 1948.39 1419.92 1986.33C1448.45 2014.85 1490.98 2047.17 1529.3 2062.5C1701.1 2131.22 1885.46 2175.78 2074.22 2175.78C2156.02 2175.78 2234.61 2161 2314.45 2146.48C2484.92 2115.49 2628.32 2059.36 2746.09 1927.73C2748.73 1924.79 2773.91 1891.64 2789.06 1890.62C2793.72 1890.31 2813.38 1896.68 2818.36 1886.72C2823.26 1876.92 2804.84 1865.53 2814.45 1853.52C2832.54 1830.91 2894.75 1880.2 2900.39 1863.28C2904.08 1852.21 2867.08 1755.34 2863.28 1736.33C2848.81 1663.96 2841.75 1585.81 2818.36 1515.62C2805.41 1476.77 2794.55 1436.56 2779.3 1398.44C2771.04 1377.78 2755.58 1356.31 2750 1333.98C2745.2 1314.78 2773.35 1236.87 2777.34 1212.89C2791.18 1129.88 2792.97 1044.75 2792.97 960.937C2792.97 910.198 2784.76 849.209 2748.05 812.5C2728.6 793.058 2673.86 812.49 2650.39 820.312C2557.99 851.111 2484.42 909.542 2410.16 970.703C2408.45 972.108 2400.75 968.894 2400.39 968.75C2369.9 956.553 2338.85 946.611 2306.64 939.453C2235.6 923.667 2163.15 913.088 2089.84 910.156C2066.43 909.219 2006.62 901.569 1978.52 912.109C1971.55 914.721 1971.55 956.415 1970.7 964.844C1966.89 1002.97 1957.44 1041.75 1945.31 1078.12C1911.13 1180.67 1846.07 1278.2 1763.67 1349.61C1681.9 1420.47 1581.23 1468.9 1474.61 1488.28C1431.23 1496.17 1385.77 1500 1341.8 1500C1327.46 1500 1305.24 1489.13 1298.83 1501.95C1288.23 1523.15 1285.91 1556.79 1281.25 1580.08C1269.29 1639.88 1260.93 1700.41 1246.09 1759.77C1239.76 1785.09 1206.69 1840.77 1214.84 1865.23Z" fill="#fdfdfe" fill-rule="nonzero" opacity="1" stroke="none"/>
<path d="M1648.44 2265.62C1635.28 2278.79 1629.98 2304.94 1623.05 2322.27C1606.16 2364.48 1585.24 2405.05 1568.36 2447.27C1513.7 2583.9 1427.7 2705.19 1380.86 2845.7C1360.97 2905.36 1347.66 2963.83 1347.66 3027.34C1347.66 3030.03 1348.41 3032.76 1349.61 3035.16C1363.54 3063.02 1387.47 3093.42 1414.06 3109.37C1436.26 3122.7 1467.66 3121.95 1486.33 3140.62C1505.54 3159.84 1477.56 3196.64 1494.14 3218.75C1541.5 3281.89 1627.96 3287.83 1701.17 3269.53C1716.43 3265.72 1754.63 3263.12 1763.67 3248.05C1765.93 3244.29 1760.82 3232.19 1759.77 3228.52C1750.08 3194.61 1688.71 3186.41 1660.16 3185.55C1641.27 3184.97 1622.41 3183.59 1603.52 3183.59C1592.72 3183.59 1592.6 3184.17 1585.94 3187.5C1583.98 3185.55 1583.98 3185.55 1582.03 3183.59C1591.99 3173.64 1623.41 3172.59 1636.72 3171.87C1655.58 3170.86 1674.47 3169.92 1693.36 3169.92C1704.6 3169.92 1717.63 3182.61 1726.56 3175.78C1792.2 3125.58 1839.44 3029.13 1843.75 2947.27C1849.31 2841.56 1826.89 2797.59 1753.91 2724.61C1735.78 2706.48 1698.27 2695.34 1683.59 2675.78C1682.81 2674.74 1682.92 2672.99 1683.59 2671.87C1695 2652.86 1725.11 2686.68 1740.23 2681.64C1740.23 2663.6 1742.01 2629.08 1755.86 2615.23C1774.02 2633.39 1751.03 2679.28 1765.62 2701.17C1780.44 2723.4 1805.33 2736.97 1824.22 2755.86C1872.29 2803.93 1878.91 2889.19 1878.91 2951.17C1878.91 2994.76 1860.77 3060 1833.98 3095.7C1825.08 3107.58 1812.19 3122.85 1806.64 3136.72C1803.3 3145.08 1812.85 3176.72 1814.45 3185.55C1821.67 3225.27 1826.72 3268.94 1841.8 3306.64C1848.95 3324.52 1880.99 3325.54 1896.48 3328.12C1942.6 3335.81 1993.92 3339.26 2039.06 3324.22C2055.51 3318.74 2089.33 3303.54 2085.94 3283.2C2079 3241.6 2009.58 3255.67 1992.19 3238.28C1997.55 3230.24 2038.86 3227.22 2039.06 3222.66C2044.91 3091.11 2045.99 2961.12 2060.55 2830.08C2065.02 2789.82 2064.77 2732.1 2095.7 2701.17C2133.15 2729.26 2070.77 2864.65 2083.98 2904.3C2089.04 2919.48 2118.07 2948.15 2126.95 2957.03C2142.85 2972.93 2168.36 2976.76 2189.45 2978.52C2232.55 2982.11 2276.13 2953.24 2306.64 2925.78C2317.3 2916.19 2326.24 2902.97 2339.84 2898.44C2339.84 2867.04 2366.22 2825.64 2375 2794.92C2398.18 2713.78 2416.33 2635 2431.64 2550.78C2436.05 2526.54 2438.51 2448.21 2451.17 2435.55C2459.76 2441.99 2457.01 2456.24 2458.98 2466.8C2460.79 2476.44 2478.71 2496.42 2484.37 2505.86C2518.77 2563.19 2559.49 2616.66 2619.14 2646.48C2621.09 2644.53 2621.09 2644.53 2623.05 2642.58C2612.43 2631.96 2600.88 2624.32 2589.84 2613.28C2573.62 2597.05 2570.38 2569.56 2564.45 2548.83C2546.14 2484.73 2552.5 2436.21 2593.75 2386.72C2583.53 2376.5 2561.59 2376.76 2548.83 2367.19C2510.32 2338.31 2486.86 2304.51 2460.94 2265.62C2451.07 2275.49 2429.49 2278.71 2416.02 2283.2C2361.58 2301.35 2306.49 2315.9 2250 2326.17C2094.8 2354.39 1935.84 2348.71 1783.2 2310.55C1741.02 2300 1684.94 2289.96 1648.44 2265.62Z" fill="#fdfdfe" fill-rule="nonzero" opacity="1" stroke="none"/>
<path d="M1376.95 806.641C1315.36 815.804 1322.26 923.137 1320.31 976.562C1317.23 1061.43 1321.99 1144.84 1335.94 1228.52C1341.51 1261.93 1363.28 1302.79 1363.28 1335.94C1363.28 1345.82 1349.83 1354.6 1347.66 1363.28C1339.08 1397.58 1323.84 1435.52 1310.55 1468.75C1307.77 1475.7 1299.33 1490.78 1300.78 1498.05C1301.69 1502.59 1366.67 1503.91 1375 1503.91C1608.91 1503.91 1842.05 1343.12 1927.73 1128.91C1953.21 1065.21 1984.33 985.831 1978.52 916.016C1977.63 905.368 1921.95 916.982 1914.06 917.969C1858.54 924.909 1802.96 935.472 1750 953.125C1744.43 954.982 1706.67 973.16 1703.12 970.703C1679.08 954.059 1659.08 929.48 1634.77 912.109C1558.79 857.842 1470.33 792.75 1376.95 806.641Z" fill="#f7744d" fill-rule="nonzero" opacity="1" stroke="none"/>
<path d="M1667.97 2218.75C1661.99 2224.73 1644.59 2258.09 1646.48 2267.58C1648.33 2276.82 1687.42 2284.48 1695.31 2287.11C1746.41 2304.14 1798.55 2318.49 1851.56 2328.12C2013.81 2357.62 2182.79 2355.98 2341.8 2310.55C2376.37 2300.67 2436.79 2293.68 2462.89 2267.58C2455.61 2253.01 2450.19 2230.85 2437.5 2220.7C2431.55 2215.94 2403.49 2228.47 2396.48 2230.47C2354.27 2242.53 2309.58 2243.41 2267.58 2253.91C2258.47 2256.18 2170.26 2268.85 2177.73 2253.91C2182.1 2245.17 2213.37 2244.25 2222.66 2242.19C2269.14 2231.86 2315.01 2222.52 2361.33 2210.94C2514.47 2172.65 2633.24 2119.3 2740.23 1998.05C2773.19 1960.69 2780.69 1966.84 2832.03 1962.89C2834.93 1962.67 2837.51 1960.73 2839.84 1958.98C2851.58 1950.18 2828.27 1901.23 2820.31 1890.62C2798.49 1861.52 2750.23 1917.74 2742.19 1925.78C2691.98 1975.99 2649.76 2024.73 2585.94 2056.64C2420.89 2139.16 2220.35 2163.55 2037.11 2171.87C1885.56 2178.76 1667.36 2127.63 1529.3 2058.59C1463.61 2025.75 1405.88 1971.83 1359.37 1916.02C1346.99 1901.16 1311.24 1867.3 1291.02 1892.58C1284.76 1900.4 1281.29 1917.86 1277.34 1927.73C1259.64 1972 1276 1959.03 1326.17 1962.89C1340.29 1963.98 1358.88 1981.93 1367.19 1990.23C1395.65 2018.7 1417.67 2051.84 1449.22 2078.12C1533.65 2148.48 1638.57 2180.64 1744.14 2207.03C1792.2 2219.04 1840.42 2229.51 1888.67 2240.23C1899.29 2242.59 1928.03 2242.79 1933.59 2253.91C1942.34 2271.39 1842.51 2255.81 1832.03 2253.91C1780.11 2244.47 1716.31 2242.92 1667.97 2218.75Z" fill="#c9c9e2" fill-rule="nonzero" opacity="1" stroke="none"/>
<path d="M884.766 2275.39C824.757 2335.4 799.35 2437.86 796.875 2519.53C791.031 2712.38 854.203 2911.16 1011.72 3029.3C1083.61 3083.22 1173.35 3115.11 1259.77 3136.72C1277.31 3141.1 1335.85 3160.24 1347.66 3148.44C1339 3131.12 1336.62 3110.74 1328.12 3093.75C1322.76 3083.02 1283.3 3073.09 1271.48 3068.36C1223.93 3049.34 1172.3 3014.73 1132.81 2982.42C1003.08 2876.28 957.031 2749.55 957.031 2583.98C957.031 2543.01 967.716 2492.3 986.328 2455.08C961.311 2430.06 909.897 2440.37 896.484 2386.72C888.389 2354.34 884.766 2329.68 884.766 2292.97C884.766 2285.36 891.889 2282.51 884.766 2275.39Z" fill="#fdfdfe" fill-rule="nonzero" opacity="1" stroke="none"/>
<path d="M1101.56 2158.2C1010.26 2161.19 949.098 2209.1 884.766 2273.44C880.346 2277.86 884.766 2281.52 884.766 2287.11C884.766 2306.03 880.859 2324.82 880.859 2343.75C880.859 2376.97 903.738 2407.64 925.781 2429.69C935.754 2439.66 969.987 2457.96 984.375 2455.08C986.181 2454.72 988.021 2452.99 988.281 2451.17C992.285 2423.15 996.502 2399.17 1005.86 2371.09C1027.07 2307.47 1107.41 2265.23 1171.87 2291.02C1271.38 2330.82 1175.01 2529.3 1333.98 2529.3C1417.69 2529.3 1400.38 2379.85 1378.91 2326.17C1329.72 2203.2 1223.94 2154.2 1101.56 2158.2Z" fill="#f7744d" fill-rule="nonzero" opacity="1" stroke="none"/>
<path d="M3033.2 1947.27C2978.54 1960.93 2935.97 2020.6 2958.98 2078.12C2972.88 2112.86 3000.1 2145.35 3019.53 2177.73C3036.94 2206.75 3051.49 2248.05 3089.84 2248.05C3106.37 2248.05 3130.71 2223.14 3144.53 2214.84C3203.37 2179.54 3283.2 2148.08 3283.2 2068.36C3283.2 1993.51 3193 1963.07 3134.77 1992.19C3108.48 1965.91 3100.78 1959.37 3033.2 1947.27Z" fill="#0e0b78" fill-rule="nonzero" opacity="1" stroke="none"/>
<path d="M1767.58 1478.52C1615.08 1513.25 1607.95 1810.55 1783.2 1810.55C1831.93 1810.55 1867.64 1748.87 1882.81 1710.94C1906.44 1651.87 1905.58 1504.23 1818.36 1482.42C1803.24 1478.64 1779.44 1475.81 1767.58 1478.52Z" fill="#0e0b78" fill-rule="nonzero" opacity="1" stroke="none"/>
<path d="M2326.17 1478.52C2169.78 1496.78 2212.03 1810.55 2382.81 1810.55C2435.33 1810.55 2471.83 1732.03 2474.61 1687.5C2481.3 1580.47 2445.59 1464.57 2326.17 1478.52Z" fill="#0e0b78" fill-rule="nonzero" opacity="1" stroke="none"/>
<path d="M1423.83 857.422C1331.85 854.176 1370.39 1077.62 1376.95 1136.72C1380.27 1166.57 1380.29 1228.11 1408.2 1248.05C1428.26 1262.38 1452.57 1209.82 1460.94 1197.27C1485.63 1160.23 1511.2 1125.52 1542.97 1093.75C1571.72 1065 1609.26 1045.58 1636.72 1015.62C1655.98 994.612 1604.64 963.396 1591.8 953.125C1540.5 912.09 1488.63 859.709 1423.83 857.422Z" fill="#0e0b78" fill-rule="nonzero" opacity="1" stroke="none"/>
<path d="M2333.98 2896.48C2295.63 2934.83 2204.85 3010.08 2144.53 2964.84C2120.84 2947.07 2105.33 2927.56 2087.89 2904.3C2077.16 2915.03 2077.25 3006.53 2076.17 3025.39C2072.32 3092.73 2069.17 3161.21 2070.31 3228.52C2070.31 3228.62 2108.47 3260.36 2113.28 3267.58C2212.11 3218.16 2264.1 3082.92 2302.73 2986.33C2308.77 2971.24 2342.05 2904.55 2333.98 2896.48Z" fill="#c9c9e2" fill-rule="nonzero" opacity="1" stroke="none"/>
<path d="M2716.8 2224.61C2682.56 2258.84 2711.08 2308.81 2734.37 2343.75C2719.5 2358.62 2689.25 2359.5 2669.92 2371.09C2646.98 2384.86 2624.7 2400.69 2605.47 2419.92C2600.72 2424.67 2593.54 2434.42 2591.8 2441.41C2586.97 2460.7 2585.94 2475.42 2585.94 2498.05C2585.94 2524.89 2642.45 2540.16 2662.11 2542.97C2729.14 2552.54 2784.65 2541.52 2832.03 2494.14C2837.28 2488.89 2844.96 2483.95 2845.7 2476.56C2847.39 2459.72 2846.19 2442.7 2845.7 2425.78C2844.32 2377.55 2789.95 2226.56 2716.8 2224.61Z" fill="#fdfdfe" fill-rule="nonzero" opacity="1" stroke="none"/>
<path d="M3039.06 1972.66C2998.75 1982.73 2968.03 2025.19 2982.42 2068.36C2990.77 2093.4 3011.85 2116.1 3025.39 2138.67C3032.03 2149.73 3046.63 2186.92 3058.59 2191.41C3068.51 2195.12 3098.03 2168.76 3107.42 2164.06C3148.21 2143.67 3198.27 2114.23 3230.47 2082.03C3242.61 2069.89 3240.7 2053.75 3248.05 2039.06C3222.88 2013.9 3204.09 1997.81 3164.06 2007.81C3151.51 2010.95 3139.61 2025.55 3126.95 2023.44C3117.52 2021.87 3104.73 1997.31 3099.61 1992.19C3088.71 1981.28 3076.54 1978.12 3039.06 1972.66Z" fill="#fc0d64" fill-rule="nonzero" opacity="1" stroke="none"/>
<path d="M2460.94 2466.8C2452.26 2475.47 2456.08 2516.73 2455.08 2529.3C2451.67 2571.95 2453.1 2636.78 2433.59 2675.78C2501.41 2743.6 2658.25 2732.06 2730.47 2671.87C2739.16 2664.63 2756.5 2653.02 2761.72 2642.58C2752.68 2633.54 2728.54 2646.63 2716.8 2648.44C2682.83 2653.66 2642 2652.9 2611.33 2640.62C2530.28 2608.21 2515.69 2521.55 2460.94 2466.8Z" fill="#c9c9e2" fill-rule="nonzero" opacity="1" stroke="none"/>
<path d="M2724.61 1101.56C2691.98 1117.88 2717.74 1165.07 2693.36 1189.45C2670.66 1166.75 2657.01 1135.06 2634.77 1111.33C2596.62 1070.64 2560 1039.8 2517.58 1005.86C2550.1 965.203 2607.62 931.542 2654.3 908.203C2667.35 901.675 2691.22 883.553 2703.12 898.437C2730.8 933.036 2709.74 1039.09 2712.89 1080.08C2713.31 1085.47 2736.02 1082.85 2742.19 1085.94C2750.54 1077.59 2747.69 1061.7 2748.05 1050.78C2749.05 1020.19 2750 989.59 2750 958.984C2750 944.186 2747.32 926.437 2744.14 912.109C2719.3 800.34 2594.31 902.412 2544.92 939.453C2527.5 952.521 2481.24 978.176 2478.52 1000C2475.11 1027.27 2509.01 1042.38 2527.34 1056.64C2556.64 1079.43 2583 1104.48 2609.37 1130.86C2627.15 1148.63 2682.96 1250 2703.12 1250C2724.82 1250 2747.69 1121.81 2744.14 1109.37C2740.96 1098.25 2730.49 1107.44 2724.61 1101.56Z" fill="#0e0b78" fill-rule="nonzero" opacity="1" stroke="none"/>
<path d="M1353.52 3035.16C1323.87 3030.43 1382.42 3151.76 1398.44 3175.78C1422.06 3211.21 1457.85 3268.39 1488.28 3298.83C1507.67 3318.21 1618.57 3321.12 1638.67 3322.27C1676.99 3324.45 1735.79 3329.02 1759.77 3289.06C1764.99 3280.35 1770.99 3250.29 1759.77 3248.05C1745.65 3245.22 1711.78 3262.72 1697.27 3265.62C1651.02 3274.87 1601.59 3278.65 1556.64 3263.67C1518.87 3251.08 1492.19 3222.31 1492.19 3181.64C1492.19 3172.28 1499.29 3151.49 1490.23 3140.62C1472.1 3118.86 1436.61 3122.38 1414.06 3105.47C1386.75 3084.98 1386.2 3040.36 1353.52 3035.16Z" fill="#c9c9e2" fill-rule="nonzero" opacity="1" stroke="none"/>
<path d="M986.328 2453.12C997.29 2442.16 1003.9 2421.88 1013.67 2408.2C1045.24 2364 1101.89 2327.08 1158.2 2349.61C1172.03 2355.14 1189.51 2375.22 1193.36 2390.62C1203.12 2429.66 1194.4 2484.46 1220.7 2519.53C1256.49 2567.24 1327.45 2582.06 1365.23 2525.39C1354.43 2514.58 1332.16 2525.39 1318.36 2525.39C1291.03 2525.39 1267.88 2511.57 1253.91 2488.28C1221.51 2434.29 1241.52 2304.52 1171.87 2287.11C1103.77 2270.08 1017.31 2300.19 1001.95 2376.95C998.27 2395.37 971.768 2438.56 986.328 2453.12Z" fill="#be5854" fill-rule="nonzero" opacity="1" stroke="none"/>
<path d="M921.875 2941.41C919.922 2943.36 919.922 2943.36 917.969 2945.31C947.857 2990.15 985.399 3028.37 1023.44 3066.41C1098.84 3141.81 1213.23 3191.78 1314.45 3220.7C1331.34 3225.53 1398.93 3249.51 1408.2 3240.23C1398.13 3230.16 1349.93 3150.91 1343.75 3148.44C1313.63 3136.39 1259.57 3134.99 1224.61 3125C1108.74 3091.89 1001.98 3032.96 921.875 2941.41Z" fill="#c9c9e2" fill-rule="nonzero" opacity="1" stroke="none"/>
<path d="M2412.11 2779.3C2399.68 2791.73 2399.57 2826.28 2392.58 2843.75C2366.78 2908.25 2352.34 2983.08 2316.41 3042.97C2308.51 3056.13 2281.98 3097.89 2287.11 3113.28C2339.89 3086.89 2377.95 3061.5 2423.83 3015.62C2444.76 2994.7 2446.28 2888.36 2445.31 2865.23C2444.37 2842.64 2432.6 2792.95 2412.11 2779.3Z" fill="#fdfdfe" fill-rule="nonzero" opacity="1" stroke="none"/>
<path d="M1417.97 919.922C1384.31 936.749 1397.45 993.606 1396.48 1023.44C1395.7 1047.77 1401.88 1179.22 1421.87 1199.22C1438.22 1182.88 1440.78 1153.59 1451.17 1132.81C1488.75 1057.66 1549.38 977.813 1417.97 919.922Z" fill="#f64e8e" fill-rule="nonzero" opacity="1" stroke="none"/>
<path d="M2691.41 917.969C2680.85 920.608 2666.93 927.847 2658.2 935.547C2573.13 1010.62 2632.42 1050.78 2662.11 1125C2672.53 1151.05 2678.75 1177.13 2695.31 1199.22C2708.11 1186.42 2706.7 1153.88 2708.98 1136.72C2717.33 1074.12 2720.47 1014.56 2718.75 949.219C2718.3 931.989 2712.2 928.574 2691.41 917.969Z" fill="#f64e8e" fill-rule="nonzero" opacity="1" stroke="none"/>
<path d="M2839.84 2478.52C2828.33 2490.03 2820.11 2504.05 2806.64 2513.67C2742.7 2559.34 2648.44 2553.44 2591.8 2501.95C2568.72 2525.03 2613.72 2592.24 2630.86 2609.37C2646.36 2624.87 2690.76 2621.09 2703.12 2621.09C2747.82 2621.09 2797.5 2583.05 2820.31 2548.83C2829.59 2534.91 2852.7 2491.38 2839.84 2478.52Z" fill="#c9c9e2" fill-rule="nonzero" opacity="1" stroke="none"/>
<path d="M2513.67 1003.91C2533.32 1026.83 2559.98 1041.83 2582.03 1062.5C2622.2 1100.16 2649.7 1135.14 2681.64 1177.73C2692.08 1167.29 2672.59 1142.42 2667.97 1130.86C2650.51 1087.22 2607.61 1046.03 2619.14 994.141C2626.04 963.1 2655.61 935.022 2683.59 923.828C2695.02 919.258 2708.37 936.372 2714.84 927.734C2726 912.855 2696.46 880.564 2679.69 890.625C2622.88 924.712 2565.6 959.4 2513.67 1003.91Z" fill="#bc3c86" fill-rule="nonzero" opacity="1" stroke="none"/>
<path d="M1406.25 931.641C1454.08 907.723 1494 967.236 1498.05 1011.72C1501.49 1049.54 1447.43 1140.29 1429.69 1175.78C1431.64 1177.73 1431.64 1177.73 1433.59 1179.69C1452.37 1160.91 1465.18 1135.61 1482.42 1115.23C1518.13 1073.03 1559.54 1038.84 1603.52 1005.86C1571.71 974.055 1474.62 893.696 1425.78 886.719C1408.81 884.294 1397.88 923.272 1406.25 931.641Z" fill="#bc3c86" fill-rule="nonzero" opacity="1" stroke="none"/>
<path d="M2035.16 1740.23C2000.27 1747.21 1968.55 1769.33 2001.95 1802.73C2010.15 1810.93 2038.79 1817.81 2042.97 1826.17C2048.92 1838.07 2026 1864.62 2019.53 1871.09C1984.47 1906.16 1961.18 1853.87 1939.45 1841.8C1932.57 1837.97 1925.42 1843.26 1923.83 1849.61C1914.92 1885.25 1979.5 1916.85 2009.77 1908.2C2023.9 1904.17 2078.12 1861.24 2078.12 1855.47C2078.12 1844.49 2068.1 1836.72 2072.27 1824.22C2123.57 1824.22 2159.41 1760.56 2035.16 1740.23Z" fill="#0e0b78" fill-rule="nonzero" opacity="1" stroke="none"/>
<path d="M2251.95 3169.92C2228.16 3193.71 2210.35 3226.56 2187.5 3251.95C2188.8 3253.26 2189.57 3255.8 2191.41 3255.86C2232.4 3257.12 2273.44 3256.4 2314.45 3255.86C2342.23 3255.49 2408.64 3249.36 2394.53 3207.03C2383.42 3173.7 2319.17 3169.92 2292.97 3169.92C2275.38 3169.92 2264.95 3182.92 2251.95 3169.92Z" fill="#fdfdfe" fill-rule="nonzero" opacity="1" stroke="none"/>
<path d="M2390.62 3230.47C2373.32 3247.77 2339.02 3249.41 2316.41 3250C2274.75 3251.08 2233.01 3249.54 2191.41 3251.95C2177.16 3252.78 2144.87 3285.58 2130.86 3294.92C2132.16 3296.22 2132.92 3298.78 2134.77 3298.83C2180.97 3300.09 2227.22 3299.31 2273.44 3298.83C2339.17 3298.14 2379.43 3302.6 2396.48 3234.37C2393.55 3232.42 2393.55 3232.42 2390.62 3230.47Z" fill="#afafd4" fill-rule="nonzero" opacity="1" stroke="none"/>
<path d="M1607.42 1869.14C1578.91 1868.78 1529.32 1879.14 1533.2 1917.97C1536.3 1948.96 1619.18 1951.17 1632.81 1951.17C1652.26 1951.17 1717.69 1926.24 1693.36 1898.44C1670.79 1872.65 1640.13 1869.56 1607.42 1869.14Z" fill="#f28487" fill-rule="nonzero" opacity="1" stroke="none"/>
<path d="M2490.23 1869.14C2461.84 1869.38 2412.14 1879.2 2416.02 1917.97C2419.09 1948.68 2503.09 1951.17 2515.62 1951.17C2553.82 1951.17 2601.51 1919.44 2562.5 1884.77C2545.99 1870.09 2509.71 1868.97 2490.23 1869.14Z" fill="#f28487" fill-rule="nonzero" opacity="1" stroke="none"/>
<path d="M3246.09 2039.06C3234.15 2051.01 3230.89 2077.71 3212.89 2095.7C3180.14 2128.46 3123.69 2151.95 3083.98 2175.78C3075.53 2180.85 3062.53 2183.57 3056.64 2189.45C3061.07 2198.32 3069.75 2217.42 3078.12 2222.66C3087.4 2228.45 3125.89 2196.73 3134.77 2191.41C3194.2 2155.74 3255.86 2137.81 3255.86 2058.59C3255.86 2051.82 3250.64 2043.61 3246.09 2039.06Z" fill="#a10366" fill-rule="nonzero" opacity="1" stroke="none"/>
<path d="M2417.97 3015.62C2404.62 3028.98 2392.26 3043.29 2378.91 3056.64C2345.27 3090.27 2294.15 3095.04 2271.48 3132.81C2263.51 3146.1 2246.1 3164.72 2255.86 3177.73C2268.13 3171.6 2323.66 3156.48 2326.17 3154.3C2372.08 3114.38 2396.18 3070.91 2421.87 3019.53C2419.92 3017.58 2419.92 3017.58 2417.97 3015.62Z" fill="#afafd4" fill-rule="nonzero" opacity="1" stroke="none"/>
<path d="M2298.83 1556.64C2259.31 1568.73 2262.81 1679.58 2320.31 1673.83C2336.39 1672.22 2340.42 1646.43 2341.8 1634.77C2346.38 1595.79 2334.79 1545.64 2298.83 1556.64Z" fill="#fdfdfe" fill-rule="nonzero" opacity="1" stroke="none"/>
<path d="M1828.12 1556.64C1779.84 1553.51 1772.47 1669.6 1810.55 1673.83C1861.85 1679.53 1877.34 1559.83 1828.12 1556.64Z" fill="#fdfdfe" fill-rule="nonzero" opacity="1" stroke="none"/>
<path d="M2076.17 1853.52C2066.41 1863.28 2066.41 1863.28 2056.64 1873.05C2085.4 1916.19 2150.97 1926.58 2177.73 1873.05C2181.05 1866.42 2187.46 1855.32 2185.55 1847.66C2179.11 1821.92 2143.43 1878.15 2132.81 1878.91C2107.03 1880.75 2090.99 1875.75 2076.17 1853.52Z" fill="#292988" fill-rule="nonzero" opacity="1" stroke="none"/>
<path d="M2271.48 2226.56C2246.93 2214.1 2203.47 2232.51 2179.69 2246.09C2173.71 2249.51 2168.52 2263.65 2179.69 2265.62C2196.84 2268.65 2323.34 2252.89 2271.48 2226.56Z" fill="#0e0b78" fill-rule="nonzero" opacity="1" stroke="none"/>
<path d="M2822.27 2216.8C2786.62 2234.62 2824.45 2271.83 2839.84 2294.92C2857.91 2276.86 2861.94 2229.8 2822.27 2216.8Z" fill="#fdfdfe" fill-rule="nonzero" opacity="1" stroke="none"/>
<path d="M1716.8 1650.39C1693.66 1650.48 1682.31 1716.36 1714.84 1710.94C1738.93 1706.92 1739.42 1650.31 1716.8 1650.39Z" fill="#dcdceb" fill-rule="nonzero" opacity="1" stroke="none"/>
<path d="M2412.11 1650.39C2391.31 1649.16 2392.17 1706.96 2416.02 1710.94C2447.46 1716.18 2438.48 1651.95 2412.11 1650.39Z" fill="#dcdceb" fill-rule="nonzero" opacity="1" stroke="none"/>
<path d="M1794.92 3253.91C1787.04 3261.79 1791.63 3275.98 1791.02 3287.11C1790.21 3301.66 1776.75 3317 1767.58 3326.17C1778.66 3337.26 1798.83 3331.38 1814.45 3330.08C1816.29 3329.93 1817.06 3327.47 1818.36 3326.17C1808.61 3306.67 1809.7 3268.68 1794.92 3253.91Z" fill="#afafd4" fill-rule="nonzero" opacity="1" stroke="none"/>
<path d="M2708.98 1107.42C2710.94 1109.37 2710.94 1109.37 2712.89 1111.33C2717.58 1106.64 2719.06 1108.24 2724.61 1105.47C2741.78 1122.64 2759.94 1083.03 2730.47 1080.08C2722.48 1079.28 2714.71 1073.69 2710.94 1085.94C2708.82 1092.81 2712.2 1100.99 2708.98 1107.42Z" fill="#292988" fill-rule="nonzero" opacity="1" stroke="none"/>
<path d="M2271.48 2228.52C2272.46 2230.47 2272.46 2230.47 2273.44 2232.42C2265 2240.86 2277.47 2244.01 2267.58 2253.91C2275.94 2262.27 2292.86 2257.92 2300.78 2250C2296.07 2242.93 2295.83 2246.24 2298.83 2240.23C2289.67 2231.08 2285.56 2214.44 2271.48 2228.52Z" fill="#292988" fill-rule="nonzero" opacity="1" stroke="none"/>
</g>
</g>
</svg>
